<svg xmlns="http://www.w3.org/2000/svg" width="76" height="19" viewBox="0 0 76 19">
  <g fill="none">
    <rect width="76" height="19" fill="#FF7A00"/>
    <g fill="#FFF" transform="translate(7 4)">
      <polygon points="5.778 0 8 0 6.665 11 0 11 1.335 0 3.557 0 2.489 8.8 4.71 8.8"/>
      <polygon points="14.244 4.4 16.466 4.4 15.665 11 9 11 10.335 0 17 0 16.733 2.2 12.29 2.2 11.489 8.8 13.71 8.8"/>
      <path d="M21.0226294 4.39999963L23.2443427 4.39999963 23.5113147 2.19999982 21.2896014 2.19999982 21.0226294 4.39999963zM22.9773707 6.59999945L25.199084 6.59999945 24.6651398 11 22.4434265 11 22.9773707 6.59999945 20.7556574 6.59999945 20.2217133 11 18 11 19.3348602 0 26 0 25.466056 4.39999963 23.2443427 4.39999963 22.9773707 6.59999945zM32.2443421 4.39999963L32.5113141 2.19999982 30.2896011 2.19999982 30.0226291 4.39999963 32.2443421 4.39999963zM35 0L33.66514 11 31.443426 11 31.9773701 6.59999945 29.7556571 6.59999945 29.221713 11 27 11 28.33486 0 35 0z"/>
      <polygon points="44 0 43.733 2.2 39.29 2.2 38.489 8.8 42.932 8.8 42.665 11 36 11 37.335 0"/>
      <polygon points="50.487 2.2 49.409 11 47.165 11 48.243 2.2 46 2.2 46.27 0 53 0 52.73 2.2"/>
      <polygon points="57.023 4.4 61.466 4.4 61.199 6.6 56.756 6.6 56.222 11 54 11 55.335 0 62 0 61.733 2.2 57.29 2.2"/>
    </g>
  </g>
</svg>