<svg xmlns="http://www.w3.org/2000/svg" viewBox="0 0 572.67 572.67">
	<defs>
		<clipPath id="a">
			<rect x="-122.5" y="-13.4" width="841.89" height="595.28" fill="none"/>
		</clipPath>
	</defs>
	<g clip-path="url(#a)">
		<path d="M286.33,572.67A286.34,286.34,0,0,1,83.87,83.86,286.33,286.33,0,1,1,488.8,488.8a284.46,284.46,0,0,1-202.47,83.87m0-561.63C134.54,11,11,134.54,11,286.33s123.5,275.29,275.29,275.29,275.3-123.49,275.3-275.29S438.13,11,286.33,11"
			  fill="#ffffff"/>
		<path d="M118.69,495.31s287-83.75,402.63-124.23C340,408.85,189.2,467.83,118.69,495.31" fill="#ffffff"/>
		<path d="M517.79,251.29c-32.25,6.72-63.65,14-94,21.68-1.17-3.62-3.38-5.35-8.19-4.84.06-4.34,0-11.11-.25-19.31q3.69-2.2,3.33-13l.94-.31q6.83-4,9.27-9.78,2.26-3.9.76-11-.56-4.78-8-12.79a109.75,109.75,0,0,0-14.79-12.79q-6.57-6-8-11.29c-.68-2.42-1.76-4-3.26-4.76-4.77-3-6.3,9.22-6.52,10.28-1,4.56-5.72,8.56-11.79,13.29q-2.07,1.86-3.86,3.6v-3l2.44-2.28-.74-1.17-1.76,1.75-.1-2.34-.53-.74-1,.69.1,4.3-2.7,2.55.48,1,2.28-2.07.16,2.63q-9.15,9.26-9.8,15.09c-.54,7.38,1.12,12.55,5.69,16a27.65,27.65,0,0,1-2.43,1.78c-4.72,2.1-10.94,7-12.47,12.67q-1.67-8.19-10.35-5.15l.75-28.09a21.85,21.85,0,0,0-9.53-7.27l-20.57-1A35.06,35.06,0,0,0,297.74,213l.5,28.09.5-.5V213.21L303,211l1.25,27.84.89.18L306,210.2c1.06-1,3.06-1.57,6-1.75,3,.79,4.81,7.29,4.68,19.54a4.82,4.82,0,0,1,1.09-.23s.08-6.19.25-18.56q9.88-.52,14.79,1.5,3,10.7,1.51,28.34Q322,235.1,315,247.32c-2.29-4.85-6.27-7.81-11.54-6.42s-9.79,5.81-8.77,12.44q3-10.54,10.28-10.54,5.33-.74,7.77,7.53c1.12-1.23,2.13-1,3,.75q2.54-9.36,11.29-9.78c5.69.24,9.27,3.26,11.28,10.53H313.79L295,254.59l-7.78,5.52.38.5,7.9-4.76L313,253.59l1.51,47.15,1.25.5c.14-15.26.41-30.35,2-43.64,9.76,2.07,17.63,4.32,21.06,7l.81,31.16q-12,3.48-23.73,7l-1.4,0c-3-.06-13.8,1.76-17.81,3a33.78,33.78,0,0,0-5.52,2.26L227,309l-7,4,7.59,17.84-1.72.57-9.94-23.53-2.34-8,.11-14.44-1.6-.21-.42,13.38,3,8.38L221.33,333l-11.63,4-2.38,0-12.74,1.38-7.86,5.62,2.81,0Q174.74,349.1,161,354.09l1.18-10.78,18.52-3.13.16-1L170.59,332l0-.16,3.45-6.95,19.11-.58,1.22-3.51-15.5-.21L164.43,324l-.11,13.85-7.64,2-.3,15.89c-41,14.9-74.91,28.12-99.95,37.88,0,0,328.82-96,461.36-142.34M359.42,290.15c1.76-3,4.1-4.44,7-4.21A4.09,4.09,0,0,1,370,287.2q-5.31,1.47-10.55,2.95m59.95-19.51a6.1,6.1,0,0,1,2.93,2.71l-5.63,1.43a11.94,11.94,0,0,1,2.7-4.14M423.63,213q2.81,5.92,1.25,10.79a24.49,24.49,0,0,1-10.53,7,11.31,11.31,0,0,0-4.52-1.76q12.87-3.66,13.8-16m-14.05-16.05,6.77,6.27q3.18,16.81-11,24.83a57.63,57.63,0,0,0-8.28.25q16-16.41,12.54-31.35m-10.28-4.26c0-3,.58-6.71.25-7.53,3,3.07,4.06,5.7,3.76,9.79s-1.16,8.75-3.26,12.28a116.42,116.42,0,0,0-6.77,12c-1.14,2.52-2.44,6.78-2,9.78a16.9,16.9,0,0,0-5.52,1.26,31.18,31.18,0,0,1,.5-13.8q2.63-9,7.27-13.29c4.37-5.23,5.78-7.53,5.77-10.53M367.2,214q-.27-4.52,4.94-9.78l.08,1.35a28.28,28.28,0,0,0-5,8.43m-11.79,49.91c4.56,5.8,4.84,10.5-1.51,13.48l.26-14.23,2.51-4-6.42-3c.15-10.3-5-12.28-7.88-7,3-1.69,5.3-1.56,4.92,5.67l-7.64-3c1-5.39,3.61-7.95,7.24-7.89q4.41,1.55,6.27,12c.07-.8.13-1.57.17-2.3a8.24,8.24,0,0,0,6.35,5.3c.17,3.23,1.18,5.66,3,7.28l.75,14.29h1.25l-.25-15.05a13.93,13.93,0,0,1-3.76-7.27c-2.64-2-3.71-3.82-4-6.52s1.35-6.84,5.77-11.53a42.59,42.59,0,0,0,8.27-9c1.76-3.26,1.2-10.27,5.52-2.76a28,28,0,0,0,6.27,8.53q5.52,6.41,5.52,9.52.5,3.69-6.27,6.27a26.82,26.82,0,0,0-7.28,0q-9.3,1.57-10.78,5.27c7.58-3.73,16.55-4,24.58,1.25a14.48,14.48,0,0,0,6-6.27,8.29,8.29,0,0,0,.5-6.52q-1.56-4.11-10.28-10.53a21.73,21.73,0,0,1-7-8.27c-.81-2-3-3.26-4.19-3.13-.59,0-1.25.45-1.82,1.44v-.07c-1.46-5.4.33-9.7,1.62-12.51a29.65,29.65,0,0,1,11.68-12.57c2.67-2,5.18-3.67,8-8.52s3.76-13.55,1.76-14.8a20.86,20.86,0,0,1-3.77,12.29q-2.1,3.2-13,11a29,29,0,0,0-4.36,3.62V203l.35-.32c9.1-7.61,15.55-14.36,16.55-18.81s1.26-8.53,2.76-10,3.46,1.36,4,5,.51,9.79-1.25,13.55-4.31,6.62-11.28,12.54q-5.77,5.58-7.53,18.55,2.24.48,5,5.52c.52,1.62,2.28,3.3,5.26,5q18.09-3.66,27.09,3.26l.61-.21a8,8,0,0,1-.86,5q-7.46-6.17-20.06-1,14-.92,17.8,3a5.13,5.13,0,0,1-.5,4.51q-5-5.31-13.29-3.76,6,11.38-7.53,16.8s-.33,2.26-1,6.77q3.35.25,5.77,9a1.63,1.63,0,0,0,.75-1.25q2.25-9.35,8.78-11.29,3.07.51,2.76,2-5.1-1.78-11,10.28c.07.49.32.66.76.5q4.09-7.41,9.78-8.52a8.16,8.16,0,0,1,7.09,6.28q-6.59,1.68-13.09,3.4l-10.81.1-.75,2,1.11.67-1.07.29-1.06-.57-.23-17.94Q387,256.73,377,256.85q-8.13.21-12.29,3.76,7.21-2.12,10.29-2,7.57.13,9.78,2.51,2.1,1.42,2,8v11.41q-4.49-1.08-13.54-.88-10.07.81-12.54,4.26a13.94,13.94,0,0,0-2.8,6.65l-4.24,1.2,0-1.08.14-7.56c13.15-5,6.88-16.76,1.61-19.27M247.58,324.06l.38,0q-5.39,1.77-10.68,3.53a17.1,17.1,0,0,1,10.3-3.56"
			  fill="#ffffff"/>
		<polygon points="271.95 193.97 273.12 194.4 274.61 159.68 271.85 161.27 271.95 193.97" fill="#ffffff"/>
		<path d="M296,244q.13-13.8.26-27.6l-3.45-4-21.1-.4L255,216.67l16.86,12.6a19.49,19.49,0,0,1,6.5,17.79c-.91,5.54-6.19,8.78-11,9.82q-.85,10.74-1.72,21.49c8.93,4,11.38,13.84,10.88,26.41l14.07.53-.8-43-3.45.93c-.57-2.21.08-4.76,2.12-7.7,1.15-6.59,4-9.8,7.57-11.55"
			  fill="#ffffff"/>
		<polygon points="272.17 154.69 262.29 155.12 273.7 157.19 278.54 151.5 272.17 154.69" fill="#ffffff"/>
		<path d="M208.83,335.3l2.65-33.92-.84-.59-1.07,1.75-5.68,14.23-7.64,19.11-.11.21.64.37,11.84-24.26.64.11L207.72,328c-.09.17,0,.21-.11.48l.26,6.53v.32Z"
			  fill="#ffffff"/>
		<path d="M258.11,267.88c0-2.27-.25-5.77-1.2-5-.64,2.15-.94,8.25.25,10.28,1-.15.86-3.81.95-5.27" fill="#ffffff"/>
		<path d="M169.88,317.13c1.27-11.43,2.46-30.69,5.47-33.7,1.51-1,17.81-1.25,32.42-1.26,0-.17.06-.44-.06-.47-4.46-1.14-7.82-3.86-8.36-4-1.83-.41-3.13,2.83-5,2.59-2-.26-2.69-3.69-4.71-3.85s-3.25,4.18-4.85,3.12l-.2-.13c-1.68-1.22-3-3.51-5-3.65s-5.1,4.94-5.37,2.92.44-4.21,1.46-6.64L167,275.53c1,2,3.19,4.9,3.12,7.15L169,317.07Z"
			  fill="#ffffff"/>
		<path d="M236.89,271.17c.1-.37,1.75-12.81-.38-9.34s-.33,11.82.38,9.34" fill="#ffffff"/>
		<path d="M248.58,271.89c1.34-3.5.75-13,0-11.28-2,4.77-1.16,12.08,0,11.28" fill="#ffffff"/>
		<path d="M226.26,287.69q1.83-7.11,6.52-7,6.42-.09,7,6,3-7.4,7.78-6.52c4.88.89,6.52,2.76,9,8,.5-5,.09-7.37,2.75-7.28s6.78,6.77,6.53,5.52a12.12,12.12,0,0,0-5.51-8.23,133.09,133.09,0,0,1,1.49-15.59,7.61,7.61,0,0,0,2.26-4.27q.51-2.06-2.76-2.76a3,3,0,0,1-1.25,2,34.11,34.11,0,0,0-13.8-3q-9.84-.21-15.8,3.76,11.76-2,15.3-2,10.86,1.35,12.79,5.51.9,4.5.5,15.55v.12a12.88,12.88,0,0,0-2.51-.87,46.06,46.06,0,0,0-12-1.25q-12.48.45-16,4-3.12,2.64-2.26,8.27"
			  fill="#ffffff"/>
		<polygon
				points="373.97 276.16 373.97 271.14 373.22 266.13 372.47 266.13 372.22 275.15 373.22 276.66 373.97 276.16"
				fill="#ffffff"/>
		<polygon
				points="390.22 145.08 392.5 143.01 393.35 157.13 394.04 157.35 394.04 141.31 396.48 139.03 395.74 137.87 393.99 139.62 393.88 137.28 393.35 136.54 392.34 137.23 392.45 141.53 389.74 144.07 390.22 145.08"
				fill="#ffffff"/>
		<path d="M391.77,161.25c-1.42,3.89,3.28,5.89,4.82,1.67,1.63-4.44-3.28-5.91-4.82-1.67" fill="#ffffff"/>
		<polygon points="254.35 215.22 272.15 208.2 285.45 208.2 281.68 204.18 272.15 203.93 254.1 214.22 254.35 215.22"
				 fill="#ffffff"/>
		<polygon
				points="381.75 276.66 382.25 275.91 382.5 271.39 381.75 266.63 381 266.13 380.74 267.63 380.49 274.15 381 275.91 381.75 276.66"
				fill="#ffffff"/>
		<polygon points="367.2 276.66 367.45 267.63 366.2 266.63 366.45 276.66 367.2 276.66" fill="#ffffff"/>
		<path d="M192.75,234.52c0-7.43-2.36-7.39-2.39,0,0,8.15,2.35,8.2,2.39,0" fill="#ffffff"/>
		<path d="M203.31,235.21c-.18-7.77-2.62-7.65-2.44,0s2.62,7.7,2.44,0" fill="#ffffff"/>
		<polygon
				points="196.17 243.06 195.45 243.35 201.96 249.88 209.76 244.31 209.84 244.28 209.73 243.43 204.93 246.06 204.85 246.12 199.97 245.93 196.17 243.06"
				fill="#ffffff"/>
		<polygon
				points="184.12 244.52 183.96 245.08 187.73 250.65 194.76 243.38 194.5 242.68 189.62 245.93 184.12 244.52"
				fill="#ffffff"/>
		<path d="M213.8,244.12c.79-5,1.12-11.49,1.91-21.44A27.8,27.8,0,0,0,205,218.86a85.21,85.21,0,0,0-13.38-.27c-3.82.42-6.65,1-8.81,3a187.17,187.17,0,0,0,.23,20.5c0,.48.13,1,.65,1,.17-.73.19-4.09.13-10.43-.4-3.88.74-6.8,3.39-8.76q1.33-.69,6.32-.48a22.44,22.44,0,0,1,9.45,2.13,11.13,11.13,0,0,1,4.83,5.83,64.89,64.89,0,0,0,5,12.27c.16.6.75,1,.91.47"
			  fill="#ffffff"/>
		<path d="M184.21,216.55a1.39,1.39,0,0,0-.64-1.59q-3.7-2.57-3.66-8.66a18.41,18.41,0,0,1,3.87-10.72q-2.37,8.13,2.34,13.32,4.53,4.93,9.66,3.35a19.12,19.12,0,0,1-8-9.13q-1.15-3.94-.48-12.11a92.83,92.83,0,0,0,8.65-9.6,10.34,10.34,0,0,0,2.28-6.48,8,8,0,0,1,.8-3.86c3.31-3.38,4.72.77,5,4,.24,2.4,2.62,5.47,6.27,9.34a26.89,26.89,0,0,0,3.07,4.24q-2.59-1-7.43-6-3-3-4.24-9.66-.28,5.76,1.38,8.5a23.5,23.5,0,0,0,7.22,8.38q3.5,2.5,7.11,8.6,2.53,6.93-2.34,11.15a26.54,26.54,0,0,0-1.06-8.07q-2.22-4.65-10.4-13.91-3.67-4.51-3.61-14.86-2.34,10.53.53,15.61,8.41,10.82,8.92,20.8c.2,2.52-1.07,3.76-3.83,3.72q-.78-4.53-6.68-16.56-3.32-5.53-1.81-14.33c-3.67,3.9-5.53,7.81-5.54,10.14-.36,7.56,2.85,14.08,9.58,21.18-1.44.74-4.09,1.2-8,1.38q-7.22.8-10.4,3.71,20.76-5.29,33.76,3.93c.69-1.32,1-2,.58-3.16a30,30,0,0,1-2-2.36c.07,0,3,.47,3.29.21q5.17-3.78,6.48-11.46-.32-10-7.12-16.14-11.11-10.12-12.52-16.78c-.65-3.17-4.58-4.47-6.67-2.11a6.44,6.44,0,0,0-1.35,4.2q.12,3.21-3.72,6.9-2,2.9-11.57,10a21.28,21.28,0,0,0-6.58,13.59q.87,10.22,8.71,11.36"
			  fill="#ffffff"/>
		<path d="M229,253.78a39.29,39.29,0,0,1,15.17-2.64c6.16,0,11.11.92,14.86,2.88,1.94.73,2.83,1.57,4.55.54q8-5,8.57-12.77.24-5.92-10.42-14.62a30.32,30.32,0,0,1-9.89-10.73c-1.51-2.89-5.34-9.61-8-3.71a30.13,30.13,0,0,1-1.58,4.91c-1,2.06-4.45,4.55-9.23,8-1.36.91-3.5,2.58-6.41,5q-6.51,5.88-7,12.83.72,8.11,9.41,10.25m-3.17-18.7a25.88,25.88,0,0,1,6.95-7,54.51,54.51,0,0,0,6.35-5.22c2.33-2.23,3.63-3.67,4.14-5.09s.94-5,2.15-6.41c1.65-2.26,4.14,2.17,4.83,3.57,1.31,4.28,7.35,11.14,9.92,13.83a13.91,13.91,0,0,1,3.91,8.89c.19,3-1.75,4.94-4.44,7.23A30.3,30.3,0,0,1,252,248.7c.09-.14-.57-.23-1.18-.48.51,0,2.64-1.41,5.89-3.55q4.22-3.76,4.18-7.43a11.59,11.59,0,0,0-3.58-7.87,24.8,24.8,0,0,1-5.15-7.76,46.11,46.11,0,0,0-3-7.75c-.39-.26-.69-.12-.45.47.31.15.93,1.67,1.86,4.58q.25,2.46,3.78,11.61,1.37,2.72.67,7.69a25.22,25.22,0,0,1-5.71,9.76,8.93,8.93,0,0,0-3.42-.3c2.38-2.13,4-6.17,4.81-11.38a42.14,42.14,0,0,0-.26-13.27,65.32,65.32,0,0,0-2.79-10.38c-.46-.14-.52.13-.2.8q.85,3.69-1,10.25a123.45,123.45,0,0,1-4.95,12.09,16.17,16.17,0,0,0,0,12.38,21.31,21.31,0,0,0-6.2,1.24q-3.24-8-1.68-14.2,1.06-3,5.81-7.13a32.07,32.07,0,0,0,5.57-7.55,29.41,29.41,0,0,0,1.56-8q-.52-1.72-.9.12a36.09,36.09,0,0,1-.54,3.6q-.51,2.6-3.89,6.83-1,2-5.69,5.22a20.36,20.36,0,0,0-7,6.53,13.23,13.23,0,0,0-.78,5.75,16.16,16.16,0,0,0,6,10.19,4.19,4.19,0,0,0-3.12,1.32c-3.54-2.5-6.54-5.1-7.13-9.53a9.53,9.53,0,0,1,2.28-7.43"
			  fill="#ffffff"/>
		<path d="M244,201c-1.55,3.83,3.08,6,4.77,1.84,1.78-4.39-3.07-6-4.77-1.84" fill="#ffffff"/>
		<path d="M199.32,159.57c-1.62,3.81,3,6.05,4.73,1.92,1.86-4.35-3-6.07-4.73-1.92" fill="#ffffff"/>
		<polygon
				points="245.39 182.83 245.74 196.97 246.42 197.21 246.98 181.19 249.5 178.99 248.8 177.8 246.99 179.49 246.97 177.15 246.46 176.39 245.43 177.04 245.38 181.34 242.59 183.79 243.03 184.82 245.39 182.83"
				fill="#ffffff"/>
		<polygon
				points="201.01 141.4 201.12 155.54 201.8 155.79 202.64 139.78 205.19 137.63 204.51 136.43 202.67 138.08 202.69 135.75 202.2 134.97 201.16 135.61 201.04 139.91 198.2 142.31 198.62 143.35 201.01 141.4"
				fill="#ffffff"/>
		<path d="M215.25,249l3.48-3.67.11-.05.1-.56-6.42.24-1.22-.4c-.11,0-.09-.06-.27-.1l-.1.53,4.22,3.87Z"
			  fill="#ffffff"/>
		<polygon
				points="163.53 326.59 163.53 322.39 168.99 321.44 181.84 319.42 182 319.42 194.47 319.9 196.33 316.61 185.02 317.19 177.65 318.36 167.93 320.22 162.31 320.64 162.68 326.96 163.53 326.59"
				fill="#ffffff"/>
		<polygon
				points="178.1 246.73 181.12 251.13 181.23 251.29 183.3 245.08 177.41 245.08 174.38 252.88 174.82 253.07 178.1 246.73"
				fill="#ffffff"/>
		<path d="M181.47,208q.42,6.17,4.8,6.72a6,6,0,0,0,3.45-.72q-4.49-1.2-8.25-6" fill="#ffffff"/>
		<polygon
				points="169.47 268.94 188.26 266.29 217.09 267.77 228.87 270.96 229.08 268.62 218.73 263.69 216.02 263.58 216.24 257.79 220.27 254.98 220.27 254.08 215.6 253.07 198.56 252.54 183.01 252.54 176.37 253.55 176.16 254.45 181.41 256.79 181.41 264.32 167.82 267.08 164.37 273.24 166.55 274.3 169.47 268.94"
				fill="#ffffff"/>
		<path d="M225.76,291.71c.91-.36,1-.61.25-.76a5.42,5.42,0,0,0-5,3.77,21.56,21.56,0,0,0,0,6.52c-1.19.44-1.78,1.53-1.75,3.26a35.11,35.11,0,0,0,.75,7c.28.55.5.25.39-1.39-.45-4.94.25-7.66,1.37-7.89a18.18,18.18,0,0,1,.5-6.77,4.85,4.85,0,0,1,3.51-3.76"
			  fill="#ffffff"/>
		<path d="M258.36,290.2q4.26,1.73,5.77,8.28a14,14,0,0,1,1.75-7.53q-2.86-2.2-7.52-.75" fill="#ffffff"/>
		<path d="M241.31,289.45q3.52.69,6,6.77.43-5.57,6.52-6.27a13.84,13.84,0,0,0-12.54-.5" fill="#ffffff"/>
		<path d="M217.73,308.51l.26-9a26,26,0,0,1,.75-4.76l4.51-5.27-.25-8.28c1.25-3.26,2.76-4.76,4.77-5.76l.5-3.77-15.55-3.26-.5.76,3.26,4-1,26.83Z"
			  fill="#ffffff"/>
		<rect x="323.82" y="223.49" width="2.26" height="13.29" fill="#ffffff"/>
		<polygon
				points="310.02 235.28 310.52 234.53 310.77 227 309.52 223.49 308.77 224.25 309.02 228.51 309.02 235.53 310.02 235.28"
				fill="#ffffff"/>
		<polygon points="296.48 257.35 293.04 258.96 292.72 259.1 294.22 303.75 295.48 303.75 296.48 257.35"
				 fill="#ffffff"/>
		<path d="M232,288q-3.33.49-4.51,2.5a2,2,0,0,0,.25,1.26c.61.17,1.2,1.92,1.75,5.26q.15,1.51.75,0,1.71-6.3,6.52-7.27c.58-.29.67-.63.26-1a11.65,11.65,0,0,0-5-.75"
			  fill="#ffffff"/>
		<polygon
				points="307.89 155.91 304.17 151.19 289.1 154.43 279.97 150.76 288.62 157.4 303.43 154.37 307.89 155.91"
				fill="#ffffff"/>
		<polygon points="287.03 175.61 287.88 174.76 288.73 158.62 286.81 159.36 287.03 175.61" fill="#ffffff"/>
		<path d="M223.5,307q1.31-6.56,6.27-6.77,5,.93,7.53,7.53,3-10.53,11.53-8,6.75-.42,9.28,8.28,1.74-7.35,4.77-7c1.69.47,3.27,2.31,4.76,5.51a7.37,7.37,0,0,0-3.51-6.77q-1.8-1.22-4.26.5a5.57,5.57,0,0,0-3.26-2c-3.9-.38-6.66-.12-8.28.75-1.08-.88-3.84-1.29-8.28-1.25a21.54,21.54,0,0,0-10.28,1.75q-4.41-1.58-7.52,3.76c.76.56,1.18,1.81,1.25,3.76"
			  fill="#ffffff"/>
		<path d="M314.79,133.09c-1.42,3.88,3.29,5.88,4.82,1.67,1.63-4.45-3.27-5.91-4.82-1.67" fill="#ffffff"/>
		<path d="M282.05,86.64c0-2.48-2-2.5-2-.08,0,2.94,2,3,2,.08" fill="#ffffff"/>
		<polygon
				points="313.24 116.92 315.53 114.85 316.38 128.97 317.06 129.18 317.06 113.15 319.51 110.87 318.76 109.7 317.01 111.45 316.91 109.12 316.38 108.37 315.37 109.06 315.47 113.36 312.77 115.91 313.24 116.92"
				fill="#ffffff"/>
		<path d="M286.91,68.36c-4.29,0-7.39,1.71-7.7,5.07q2.49-3.83,7.8-3.61c4.34.4,6.57,2,6.69,4.67a2.19,2.19,0,0,0,1.22-3.08c-.58-1.2-3.73-3.06-8-3"
			  fill="#ffffff"/>
		<path d="M287.6,86.32c-.07-2.43-2.11-2.45-2.05,0,.08,2.7,2.12,2.6,2.05,0" fill="#ffffff"/>
		<path d="M257.35,167.27l-3.5,42.15.74,1,4.78-43.63L254.06,162l7.43-3.82-3.18-4.67,7.11.32,11.79-6.58,14.65,4,12.31-3.61h.53l5.63,4,.21-1.6-5.31-6.9-2.42.6,3.05-5.88,5.2,10.72-1.38-9.55-16.28-47q4.55-5.5-.1-9.5c-.37-.65-.42-2.36-.15-5.15.87.06,1.17-.41.9-1.43q-7.29-6.49-14.23.9,5.76-3.28,8.39-1.64c1.84,1.16,2.65,3.77,2.44,7.8A4.77,4.77,0,0,0,287.09,81a4.42,4.42,0,0,0-3.58,1.82,4.59,4.59,0,0,0-2.18-.77c-1.21.18-1.85.76-1.91,1.72a2.4,2.4,0,0,1,3.69.14c.18.36.49.4.93.1a3,3,0,0,1,2.87-1.45,3,3,0,0,1,2.49,1.66c.17.42.45.47.83.16.81-.61,2.23-1.3,2.94-.31a6.35,6.35,0,0,1,.51,5.6c-.12.52-.37.76-.75.71-.36.18-1.14-.59-2.33-2.31q-.81-.92-1.38-.06c-1.47,3-2.69,2.91-4.62.26a.63.63,0,0,0-1.06.06c-4,6.25-5.52-5-5.36-1.6.41,2.83,1.13,4.44,2.18,4.82l-8,24.26c-1.75,5.32-3.5,13.58-4.81,19l-3.08-.21c-.81,4.1-1.11,6-1.16,13.59l2.12-9.66.85,10.56a77.86,77.86,0,0,0,7.11-14.71l6.6,9.18-3.72-.92-10.72,9-.43.1-10.19-.32,3.72,6-8.92,4.46Zm34.4-20.81-9.18-2.26,7.68-11.52,9.54,11.82ZM273.16,131l-5.73,13.48.42-4.14,6.9-19.75c3-8.51,4.1-20,5.69-29,.93.28,2.1-.4,3.52-2q3.06,3.35,5.55.83l7.11,25c1.84,7.06,3.14,13.93,3.93,19l-9.24-10.82a27.64,27.64,0,0,0-6.9,7.43V92.24l-4.24,46.29Z"
			  fill="#ffffff"/>
		<path d="M300.74,164.06a129.22,129.22,0,0,0-12.28,11.53c-7.29,7.63-9.18,14.49-7.94,22.11s7.61,11.87,13.7,13.5q-3.42-2.26-2.76-8l5,1.25-.08-4.6.08-.41,3.53,1.9.23.11,1.36-5.21-.1-.31,8.27,2.51c-4.26,3.51-7.77,3-12.29,9.27q24.81-13.27,46.9,4.52,13.94-8.58,13.29-19.31-.32-12-18.56-26.84c-4.48-2.84-7.28-6.21-10.53-9.53s-6-6-7.27-11.28c-1-3.06-3.45-5.24-6.27-4q-2.32,1.65-2.51,7.77-1.86,6.84-11.79,15.05m40.88,29.34-4,2.26-4.77-4-4.76,3.26-5-4-5.76,3.51-5.52-3.76-3.76,4-7-2.25-3,4.51-3-1.5-1.76,3.51-4.26-1-.76,5.77c-1.75-3-2.25-7.52,0-10l4,2.51,2-5.52,3,2,.1-.22,4.42-5.3,4.51,2.76,4.77-4.77,5.51,4.52,6.52-4.52,4.77,4.77,6-4.51,4.76,7.27,3-2.26,2.76,4.26Zm5-7-3.26-3.51-4.27,4.51-.3,0-4.71-5.74-5.77,4.27-5.27-5-6,4.77-5.76-4-6,5.27L301,183.62l-5,5.77-3.51-2.51-2,5L287,190.14a12.39,12.39,0,0,1,4.51-7.77l4.52,2.5,2-3.76,4.26,1.51,2.76-3.26,5,1.5.07-.15,3.19-2.36,5.77,2.26,3.76-2.51,5.77,2.76,3.51-2.76,6,3.76,3.26-3.26a10.51,10.51,0,0,1,5.27,7.78m-5.52-10.79-3.51,2.26-5.52-2.76-4.26,2.51-5.27-3-5,3-5.27-2.51-4.77,3-4-1.75-4.26,3.76-2.76-1.76-2,3-3-2a16.62,16.62,0,0,1,6.78-5.77l2.76,1.75,1.75-2.75,3.26,1.5,2.51-3,4.26,1.25,2.76-2,4.76,2,2.76-2.5,3.77,2.5,4-2.25,3.26,2.51,2.51-2a32.25,32.25,0,0,1,4.51,5m-5.52-6-1.25.75-3.51-3-3.76,2.51-4-2.76-4,2.25-4.26-2-4,2.76-.2,0-3.31-1.47-3.26,3-2.5-1.25L300,172.84l-1.5-1.51,3.76-4,1.75.5,1.76-1.25,2.26.75,2-1.51,2.76.51,2-1,4,1,2-1.26,2.75,1,2.76-1,2.51,1.26,2.51-1Zm-22.32-18.81h4a6.25,6.25,0,0,1,5,2.5l-3.26-1-2,1-1.5-1-1.75,1h-2a5.48,5.48,0,0,0,1.5-2.5m-1.5,3.51,1.25.5.76-.75,1.5.5,1-.75,1.76.5v-.16l1.24-.59,1.51.75,1.75-.25.75,1.25-1,.5-2.26-1-1.75.75-2-.5-2,.75-.76-.5L312,156l-1.26-.75Zm-1.26,2.25,2,.51,1.76-.76,1.25.51,1.25-.76,2,.76,1.76-.76,2,.76,1.51-.51,1,1.26-2,.5-3-.75-2.25.5-2-.5-2.26.5h-1.75l-1,.5-1.25-1ZM309,159l1,.25,2.26-.75,2,.5.18,0,2.07-.71h.19l2.32.51,1.76-.5,2.5.75,2-.5,2,2-1.51.5-2-1.25-2.26,1-2.26-1-2.26,1-2.5-1L312,161.05l-1.76-.75-1.75,1-1-.25Zm0,3.76,2.26-1,2.25.5,1.51-1,2.76,1,1.75-1,2.26.75,2.26-.5,1.5.5,2.51-.5,2.26,2.51-1.26.75-2.5-1.5-3,1.5-3-1.5-3.26,1.25-3-1.25-2.51,1.5-2.76-.75-2.26,1.5-2.25-.75,2.5-2.51Z"
			  fill="#ffffff"/>
		<path d="M293.06,86.53c-.21-2.15-2.15-2-1.93.11.27,2.69,2.2,2.48,1.93-.11" fill="#ffffff"/>
		<path d="M278.16,71.59c1.35-5.83,8.52-7.34,16.19-3,3.66-4.45,1.48-10.25-2.76-11.42-5.52-1.52-6.59-3.17-5.46-8.28a18.55,18.55,0,0,0,.49-6,1.72,1.72,0,0,0,.47-3.39V25.58l2.66-2-.43-.85L287,24.57l.16-4.25-1.06.06v4.51l-2.82,2.33.27.85L286,26l.13,13.38c-2.82.13-2.69,3.09-.57,3.39.15,4.42-1.15,8-4.35,10.19-2.68,1.82-5.06,3.7-6.42,6.42-2.74,5.51-.55,10.38,3.39,12.21"
			  fill="#ffffff"/>
		<path d="M290.49,53.79a19.19,19.19,0,0,1,5.89,5.2q3,3.39-.47,9.56c4.17-4.73,3.95-10.56-.64-13.7s-7-4.92-7.91-9.5q-.83,5.85,3.13,8.44"
			  fill="#ffffff"/>
		<path d="M421.53,300.65q19.1-6,38.19-11.93.36,6.34.69,12.67c-8,2.48-16,5-24,7.51.22,4,.45,8.1.69,12.15,7.54-2.33,15.09-4.71,22.63-7.06.22,4.24.43,8.49.67,12.75-7.55,2.31-15.08,4.68-22.61,7q.65,22,1.34,43.89L425,382.09q-1.72-40.71-3.47-81.44"
			  fill="#ffffff"/>
		<path d="M353.43,322q25.32-7.93,50.62-15.89c.25,4.25.5,8.51.74,12.75l-18.27,5.76q1.47,26.25,3,52.5l-14.14,4.42q-1.5-26.25-3-52.52c-6.1,1.92-12.17,3.83-18.26,5.7q-.35-6.36-.68-12.72"
			  fill="#ffffff"/>
		<path d="M310.47,335.73c7.89-5.42,17.84-6.23,27.1-5.1.21,4.5.44,9,.72,13.48-5.91-1.79-12.47-3.29-18.26-.25-12.17,5.67-15.27,21.84-11,33.59,1.53,5.25,6.37,9.88,12.14,9.23,8.1-.68,14.08-6.86,19.65-12.14.24,4.82.48,9.64.75,14.48-7.91,5.65-16.77,11.27-26.83,11.27a20.61,20.61,0,0,1-18.51-11.89c-8.09-17.91-2.71-41.82,14.25-52.67"
			  fill="#ffffff"/>
		<path d="M198.92,365.46c6-2.11,12.14-4,18.23-5.85,1.21,21.76,2.48,43.51,3.67,65.25L207.4,429c-.94-16-1.81-32-2.8-48-3.77,13.2-7.44,26.43-11.2,39.65-2.54.77-5.07,1.58-7.61,2.36q-7.71-15.69-15.45-31.38c.79,23.5,1.66,47,2.46,70.51-4.49,1.4-9,2.83-13.44,4.25-1.08-29.24-2.24-58.45-3.3-87.7,5.78-1.79,11.58-3.62,17.36-5.45,4.93,10.19,9.75,20.42,14.69,30.6,3.65-12.79,7.37-25.57,10.81-38.43"
			  fill="#ffffff"/>
		<polygon
				points="251.83 367.41 261.76 377.72 275.87 375.37 269.14 388 275.73 400.7 261.64 398.2 251.59 408.39 249.61 394.22 236.82 387.81 249.69 381.56 251.83 367.41"
				fill="#ffffff"/>
	</g>
</svg>
