<?xml version="1.0" encoding="UTF-8"?>
<svg id="title" xmlns="http://www.w3.org/2000/svg" viewBox="0 0 2000 1500">
  <g>
    <g>
      <path d="M1360.12,256.23h42.69v16.54h-13.59v83.08h-15.64v-13.72c-1.88,4.45-4.81,8.04-8.78,10.77-3.97,2.74-8.4,4.1-13.27,4.1-7.61,0-13.83-3.35-18.66-10.06-4.83-6.71-7.24-15.28-7.24-25.71v-115.01c0-4.1.43-8.1,1.28-11.99.85-3.89,2.16-7.58,3.91-11.09,1.75-3.5,4.27-6.32,7.56-8.46,3.29-2.14,7.12-3.21,11.47-3.21s8.25,1.01,11.67,3.01c3.42,2.01,7.09,5.58,11.03,10.71v-13.21h16.67v73.85h-16.67v-9.36c0-5.64-.98-9.53-2.95-11.67-1.97-2.14-5.86-3.21-11.67-3.21s-9.87,1.03-11.92,3.08c-2.05,2.05-3.08,5.98-3.08,11.8v55.52c0,5.47,1.04,9.32,3.14,11.54,2.09,2.22,5.71,3.33,10.83,3.33,5.47,0,9.44-1.09,11.92-3.27,2.48-2.18,3.72-5.88,3.72-11.09v-19.74h-12.44v-16.54Z" style="fill: #e6e68a;"/>
      <path d="M1443.58,171.48c11.37,0,20.15,3.16,26.35,9.49,6.2,6.33,9.29,15.26,9.29,26.8v113.98c0,11.2-3.16,19.87-9.49,26.03-6.33,6.15-15.04,9.23-26.16,9.23s-19.62-3.12-25.77-9.36c-6.15-6.24-9.23-14.87-9.23-25.9v-113.98c0-11.54,3.08-20.47,9.23-26.8,6.15-6.32,14.75-9.49,25.77-9.49ZM1462.56,293.67v-58.34c0-4.96-.9-8.48-2.69-10.58-1.79-2.09-4.7-3.14-8.72-3.14h-13.98c-4.02,0-6.9,1.05-8.65,3.14-1.75,2.1-2.63,5.62-2.63,10.58v58.34c0,4.96.88,8.48,2.63,10.58,1.75,2.1,4.64,3.14,8.65,3.14h13.98c4.02,0,6.92-1.05,8.72-3.14,1.79-2.09,2.69-5.62,2.69-10.58Z" style="fill: #e6e68a;"/>
      <path d="M1525.13,171.48c11.37,0,20.15,3.16,26.35,9.49,6.2,6.33,9.29,15.26,9.29,26.8v113.98c0,11.2-3.16,19.87-9.49,26.03-6.33,6.15-15.04,9.23-26.16,9.23s-19.62-3.12-25.77-9.36c-6.15-6.24-9.23-14.87-9.23-25.9v-113.98c0-11.54,3.08-20.47,9.23-26.8,6.15-6.32,14.75-9.49,25.77-9.49ZM1544.1,293.67v-58.34c0-4.96-.9-8.48-2.69-10.58-1.79-2.09-4.7-3.14-8.72-3.14h-13.98c-4.02,0-6.9,1.05-8.65,3.14-1.75,2.1-2.63,5.62-2.63,10.58v58.34c0,4.96.88,8.48,2.63,10.58,1.75,2.1,4.64,3.14,8.65,3.14h13.98c4.02,0,6.92-1.05,8.72-3.14,1.79-2.09,2.69-5.62,2.69-10.58Z" style="fill: #e6e68a;"/>
      <path d="M1610.77,172c13.08,0,22.46,3.4,28.14,10.19,5.68,6.8,8.53,17.16,8.53,31.09v101.29c0,13.51-2.97,23.76-8.91,30.77-5.94,7.01-15.54,10.51-28.78,10.51h-39.88v-49.49h12.31v-84.75h-12.31v-49.62h40.9ZM1630.26,287.65v-45.13c0-7.52-1.41-12.89-4.23-16.09-2.82-3.21-7.69-4.81-14.62-4.81h-11.92v84.75h13.98c11.2,0,16.8-6.24,16.8-18.72Z" style="fill: #e6e68a;"/>
    </g>
    <g>
      <path d="M1109.83,169.92h49.6v44.39h-10.5v-7.21c0-1.39-.23-2.52-.68-3.41-.46-.88-1.15-1.51-2.08-1.88-.94-.37-1.83-.61-2.68-.72-.85-.11-1.95-.16-3.29-.16v52.97h8.73v30.93h-28.29v-30.93h9.06v-52.97h-3.69c-3.58,0-5.37,2.06-5.37,6.17v7.21h-10.82v-44.39Z" style="fill: #e6e68a;"/>
      <path d="M1219.05,200.93h-7.77v52.97h7.77v30.93h-26.28v-30.93h7.77v-21.32h-19.55v21.32h7.77v30.93h-26.28v-30.93h7.69v-52.97h-7.69v-31.01h26.28v31.01h-7.77v21.64h19.55v-21.64h-7.77v-31.01h26.28v31.01Z" style="fill: #e6e68a;"/>
      <path d="M1271.62,217.03h-10.5v-9.3c0-2.72-.43-4.54-1.28-5.45-.86-.91-2.54-1.36-5.05-1.36h-12.5v21.64h15.14v10.34h-15.14v20.99h12.1c4.54,0,6.81-2.75,6.81-8.25v-8.65h10.42v47.84h-47.84v-30.93h7.69v-52.97h-7.69v-31.01h47.84v47.12Z" style="fill: #e6e68a;"/>
    </g>
    <rect x="1109.03" y="311.72" width="166.33" height="47.47" style="fill: #e6e68a;"/>
  </g>
  <g>
    <g>
      <path d="M1323.83,392.84h46.29c8.89,0,15.98,2.59,21.28,7.76,5.3,5.17,7.95,12.16,7.95,20.96v43.98c0,10.17-1.99,17.2-5.96,21.09-3.97,3.89-11.52,5.83-22.63,5.83h-17.31v34.75h13.98v49.49h-43.59v-49.49h12.31v-84.75h-12.31v-49.62ZM1382.04,463.87v-11.54c0-3.59-.92-6.13-2.76-7.63-1.84-1.49-4.89-2.24-9.17-2.24h-16.67v31.93h16.67c4.53,0,7.65-.77,9.36-2.31,1.71-1.54,2.56-4.27,2.56-8.21Z" style="fill: #e6e68a;"/>
      <path d="M1463.97,492.46h16.67v84.24h-76.54v-49.49h12.31v-84.75h-12.31v-49.62h43.59v49.62h-13.98v84.75h17.31c5.13,0,8.57-1.07,10.32-3.21,1.75-2.14,2.63-6.24,2.63-12.31v-19.23Z" style="fill: #e6e68a;"/>
      <path d="M1570.64,527.2h12.95v49.49h-42.7v-49.49h12.44l-6.41-24.75h-28.59l-6.54,24.75h12.95v49.49h-42.57v-49.49h12.95l19.36-84.75h-9.1v-49.62h52.82v49.62h-9.23l21.67,84.75ZM1522.05,484.25h20.51l-10.26-41.28-10.26,41.28Z" style="fill: #e6e68a;"/>
      <path d="M1632.7,442.46h-13.97v84.75h13.97v49.49h-45.77v-49.49h14.49v-84.75h-14.49v-49.62h45.77v49.62Z" style="fill: #e6e68a;"/>
      <path d="M1680.78,392.84c13.08,0,22.46,3.4,28.14,10.19,5.68,6.8,8.53,17.16,8.53,31.09v101.29c0,13.51-2.97,23.76-8.91,30.77-5.94,7.01-15.54,10.51-28.78,10.51h-39.88v-49.49h12.31v-84.75h-12.31v-49.62h40.9ZM1700.26,508.48v-45.13c0-7.52-1.41-12.89-4.23-16.09-2.82-3.21-7.69-4.81-14.62-4.81h-11.92v84.75h13.98c11.2,0,16.8-6.24,16.8-18.72Z" style="fill: #e6e68a;"/>
    </g>
    <g>
      <path d="M1109.83,391.77h49.6v44.39h-10.5v-7.21c0-1.39-.23-2.52-.68-3.41-.46-.88-1.15-1.51-2.08-1.88-.94-.37-1.83-.61-2.68-.72-.85-.11-1.95-.16-3.29-.16v52.97h8.73v30.93h-28.29v-30.93h9.06v-52.97h-3.69c-3.58,0-5.37,2.06-5.37,6.17v7.21h-10.82v-44.39Z" style="fill: #e6e68a;"/>
      <path d="M1219.05,422.78h-7.77v52.97h7.77v30.93h-26.28v-30.93h7.77v-21.32h-19.55v21.32h7.77v30.93h-26.28v-30.93h7.69v-52.97h-7.69v-31.01h26.28v31.01h-7.77v21.64h19.55v-21.64h-7.77v-31.01h26.28v31.01Z" style="fill: #e6e68a;"/>
      <path d="M1271.62,438.88h-10.5v-9.3c0-2.72-.43-4.54-1.28-5.45-.86-.91-2.54-1.36-5.05-1.36h-12.5v21.64h15.14v10.34h-15.14v20.99h12.1c4.54,0,6.81-2.75,6.81-8.25v-8.65h10.42v47.84h-47.84v-30.93h7.69v-52.97h-7.69v-31.01h47.84v47.12Z" style="fill: #e6e68a;"/>
    </g>
    <rect x="1109.03" y="530.79" width="166.33" height="47.47" style="fill: #e6e68a;"/>
  </g>
  <g>
    <g>
      <path d="M1582.56,613.12h40.52v49.62h-12.44v92.44c0,7.69-.51,13.68-1.54,17.95-1.03,4.27-2.86,8.21-5.51,11.8-2.91,4.1-6.62,7.33-11.15,9.68-4.53,2.35-9.23,3.53-14.1,3.53-10.26,0-18.89-4.4-25.9-13.21-2.74-3.85-4.6-7.86-5.58-12.05-.98-4.19-1.47-10.08-1.47-17.69v-92.44h-12.44v-49.62h40.52v49.62h-10.77v70.9c0,4.96.64,8.4,1.92,10.32,1.28,1.92,3.67,2.88,7.18,2.88h12.95c3.25,0,5.49-.96,6.73-2.88,1.24-1.92,1.86-5.36,1.86-10.32v-70.9h-10.77v-49.62Z" style="fill: #e6e68a;"/>
      <path d="M1664.24,697.35h42.69v16.54h-13.59v83.08h-15.64v-13.72c-1.88,4.45-4.81,8.04-8.78,10.77-3.97,2.74-8.4,4.1-13.27,4.1-7.61,0-13.83-3.35-18.66-10.06-4.83-6.71-7.24-15.28-7.24-25.71v-115.01c0-4.1.43-8.1,1.28-11.99.85-3.89,2.16-7.58,3.91-11.09,1.75-3.5,4.27-6.32,7.56-8.46,3.29-2.14,7.12-3.21,11.47-3.21s8.25,1.01,11.67,3.01c3.42,2.01,7.09,5.58,11.03,10.71v-13.21h16.67v73.85h-16.67v-9.36c0-5.64-.98-9.53-2.95-11.67-1.97-2.14-5.86-3.21-11.67-3.21s-9.87,1.03-11.92,3.08c-2.05,2.05-3.08,5.98-3.08,11.8v55.52c0,5.47,1.04,9.32,3.14,11.54,2.09,2.22,5.71,3.33,10.83,3.33,5.47,0,9.44-1.09,11.92-3.27,2.48-2.18,3.72-5.88,3.72-11.09v-19.74h-12.44v-16.54Z" style="fill: #e6e68a;"/>
      <path d="M1766.04,712.74h16.67v84.24h-76.54v-49.49h12.31v-84.75h-12.31v-49.62h43.59v49.62h-13.98v84.75h17.31c5.13,0,8.57-1.07,10.32-3.21,1.75-2.14,2.63-6.24,2.63-12.31v-19.23Z" style="fill: #e6e68a;"/>
      <path d="M1820.78,613.12h41.54v49.62h-11.92l-25.26,55v29.75h12.31v49.49h-42.05v-49.49h12.44v-29.75l-25.39-55h-11.8v-49.62h41.54v49.62h-10.77l15,31.28,15.13-31.28h-10.77v-49.62Z" style="fill: #e6e68a;"/>
    </g>
    <g>
      <path d="M1164.16,698.85h8.09v30.93h-26.68v-30.93h7.77l-4.01-15.47h-17.87l-4.09,15.47h8.09v30.93h-26.6v-30.93h8.09l12.1-52.97h-5.69v-31.01h33.01v31.01h-5.77l13.54,52.97ZM1133.79,672h12.82l-6.41-25.8-6.41,25.8Z" style="fill: #e6e68a;"/>
      <path d="M1206.15,614.87h23.96v31.01h-7.77v83.9h-11.78l-17.55-80.85v49.92h6.73v30.93h-25.24v-30.93h7.69v-52.97h-7.69v-31.01h21.88l15.15,70.52v-39.51h-5.37v-31.01Z" style="fill: #e6e68a;"/>
      <path d="M1258.96,614.87c8.17,0,14.04,2.12,17.59,6.37,3.55,4.25,5.33,10.73,5.33,19.43v63.31c0,8.44-1.86,14.85-5.57,19.23-3.71,4.38-9.71,6.57-17.99,6.57h-24.92v-30.93h7.69v-52.97h-7.69v-31.01h25.56ZM1271.14,687.15v-28.21c0-4.7-.88-8.05-2.64-10.06-1.76-2-4.81-3-9.13-3h-7.45v52.97h8.73c7,0,10.5-3.9,10.5-11.7Z" style="fill: #e6e68a;"/>
      <path d="M1320.26,614.87h49.6v44.39h-10.5v-7.21c0-1.39-.23-2.52-.68-3.41-.46-.88-1.15-1.51-2.08-1.88-.94-.37-1.83-.61-2.68-.72-.85-.11-1.95-.16-3.29-.16v52.97h8.73v30.93h-28.29v-30.93h9.06v-52.97h-3.69c-3.58,0-5.37,2.06-5.37,6.17v7.21h-10.82v-44.39Z" style="fill: #e6e68a;"/>
      <path d="M1429.48,645.88h-7.77v52.97h7.77v30.93h-26.28v-30.93h7.77v-21.32h-19.55v21.32h7.77v30.93h-26.28v-30.93h7.69v-52.97h-7.69v-31.01h26.28v31.01h-7.77v21.64h19.55v-21.64h-7.77v-31.01h26.28v31.01Z" style="fill: #e6e68a;"/>
      <path d="M1482.05,661.99h-10.5v-9.3c0-2.72-.43-4.54-1.28-5.45-.86-.91-2.54-1.36-5.05-1.36h-12.5v21.64h15.14v10.34h-15.14v20.99h12.1c4.54,0,6.81-2.75,6.81-8.25v-8.65h10.42v47.84h-47.84v-30.93h7.69v-52.97h-7.69v-31.01h47.84v47.12Z" style="fill: #e6e68a;"/>
    </g>
    <rect x="1109.03" y="753.17" width="377.88" height="47.47" style="fill: #e6e68a;"/>
  </g>
</svg>