<svg width="152" height="42" viewBox="0 0 152 42" fill="none" xmlns="http://www.w3.org/2000/svg">
<path d="M18.3789 14.2141H7.3683V18.537C8.02851 18.1573 9.1083 17.6601 10.6077 17.0458C11.2231 16.8782 11.9673 16.7945 12.8401 16.7945C14.0373 16.7945 15.1059 17.124 16.0459 17.783C17.0977 18.509 17.6236 19.4473 17.6236 20.5979C17.6236 22.1507 16.734 23.2788 14.9549 23.9826C14.2164 24.2728 13.5786 24.4181 13.0415 24.4181L16.9355 29.143L14.8038 30.6847L8.81179 23.5804L9.91954 21.2849C10.5126 21.4524 11.1336 21.5362 11.7826 21.5362C12.7337 21.5362 13.5114 21.3128 14.1157 20.866C14.7982 20.3745 15.1395 19.6707 15.1395 18.7549C15.1395 17.8612 14.5017 17.4144 13.2261 17.4144C12.3309 17.4144 11.3798 17.8445 10.3727 18.7045C9.65659 19.319 9.00199 20.0617 8.40896 20.933C7.69282 21.983 7.33475 22.8822 7.33475 23.6307V30.6511L4.44783 29.3609V14.2141H2.31619V12.2035H4.3471C4.3471 8.99764 3.76524 6.33354 2.60152 4.2112C2.37773 3.7979 1.94694 3.17795 1.30913 2.35135C0.704887 1.55827 0.285275 0.927157 0.050293 0.458008H3.45754C4.11772 1.07237 4.80029 2.08326 5.50524 3.49071C6.70253 5.88116 7.30117 8.78539 7.30117 12.2035H18.3789V14.2141ZM34.5759 14.2141H23.3976V16.895C23.4423 16.895 23.4871 16.9173 23.5318 16.962C23.5766 17.0067 23.6156 17.029 23.6493 17.029C23.5598 17.029 23.5093 17.0234 23.4982 17.0123C23.4982 16.9564 24.3318 16.7777 25.9991 16.4761C26.6144 16.3644 27.2242 16.3085 27.8286 16.3085C30.3462 16.3085 31.9631 17.0123 32.6792 18.4196C33.1605 19.3579 33.4009 21.2513 33.4009 24.0998V30.5507C33.166 30.4613 32.2764 30.0981 30.7322 29.4615C30.7322 29.1041 30.6595 28.8749 30.5142 28.7745C29.921 29.1209 29.4342 29.3832 29.0538 29.562C27.8453 30.1317 26.4411 30.4166 24.8409 30.4166C22.6367 30.4166 20.9358 29.7239 19.7385 28.3388C19.1566 27.6686 18.8657 26.9202 18.8657 26.0936C18.8657 25.1664 19.3245 24.2449 20.2419 23.329C22.0211 21.553 24.2311 20.6649 26.8719 20.6649C28.4719 20.6649 29.7588 21.0336 30.7322 21.7707V20.2294C30.2399 19.6038 29.7588 19.1849 29.2889 18.9726C28.83 18.7604 28.1978 18.6655 27.3922 18.6877C25.5907 18.7213 23.9402 19.0509 22.4408 19.6764C21.7694 19.9556 21.1149 20.2069 20.477 20.4303V19.1905C20.6225 19.0677 20.835 18.8832 21.1149 18.6375C21.1596 18.5817 21.1876 18.5481 21.1987 18.537V14.2141H17.7579V12.2035H34.5759V14.2141ZM30.7322 24.8202C30.7322 24.3288 30.1448 23.8875 28.9698 23.4966C27.9964 23.1726 27.1852 23.0107 26.5362 23.0107C24.1751 23.0107 22.2841 23.8596 20.863 25.5575C20.2924 26.2388 20.007 26.7975 20.007 27.233C20.2419 28.0485 21.1652 28.4562 22.7765 28.4562C24.8578 28.4562 26.76 27.9366 28.4832 26.8979C29.9826 25.9932 30.7322 25.3005 30.7322 24.8202ZM51.5786 14.2141H49.7491V20.5643C49.089 20.1734 48.1377 19.8383 46.8958 19.5592C45.7321 19.2911 44.7248 19.157 43.8744 19.157C41.8268 19.157 40.1091 19.52 38.7216 20.246C37.9384 20.6594 37.5468 21.2011 37.5468 21.8713C37.5468 22.7649 38.0168 23.2117 38.9567 23.2117C39.5273 23.2117 40.2715 23.0443 41.1889 22.709C41.782 22.4968 42.5429 22.2288 43.4716 21.9047C43.8633 21.7707 44.5571 21.7038 45.553 21.7038C47.4887 21.7038 48.9321 22.3013 49.8833 23.4966C50.3422 24.0662 50.5715 24.7364 50.5715 25.5073C50.5715 27.2832 49.4526 28.6796 47.2146 29.696C46.2858 30.1205 45.4019 30.3607 44.5626 30.4166C45.3683 31.2209 46.1349 31.623 46.8621 31.623C47.097 31.623 47.3489 31.5894 47.6175 31.5224L49.3127 34.287C48.9658 34.5885 48.2552 34.7394 47.181 34.7394C46.3082 34.7394 45.5697 34.4434 44.9654 33.8513C44.641 33.5275 44.1822 32.8515 43.5892 31.8239C43.0856 30.9415 42.6659 30.4947 42.3304 30.4834C40.2602 30.4277 38.6658 30.0534 37.5468 29.3609C36.8418 28.9253 36.4892 28.3277 36.4892 27.5681C36.4892 26.6298 37.0489 26.1607 38.1679 26.1607C38.5818 26.1607 39.4433 26.4847 40.7526 27.1324C42.073 27.7692 43.1583 28.0875 44.0087 28.0875C45.7095 28.0875 47.3042 27.6854 48.7923 26.8811C49.5197 26.4902 49.8833 26.0098 49.8833 25.4402C49.8833 24.5913 49.2119 24.1668 47.8692 24.1668C47.4551 24.1668 46.1181 24.4683 43.8578 25.0715C42.5261 25.429 41.7093 25.6077 41.4071 25.6077C39.6281 25.6077 38.1621 24.77 37.0097 23.0945C36.4502 22.2902 36.1704 21.4245 36.1704 20.4975C36.1593 18.6096 37.4517 17.3362 40.0477 16.6772C41.1107 16.4091 42.1122 16.275 43.0521 16.275C44.1263 16.275 45.6481 16.5375 47.6175 17.0625V14.2141H34.257V12.2035H51.5786V14.2141ZM69.8401 14.2141H56.2951V19.2575C57.5147 17.9281 58.6447 17.0737 59.6854 16.6939C60.2673 16.4817 60.9219 16.3756 61.6493 16.3756C64.3795 16.3756 66.4216 17.716 67.7755 20.3968C68.3686 21.5698 68.6651 22.7258 68.6651 23.8651C68.6651 25.9428 67.8091 27.8194 66.0972 29.4949C65.5264 30.0534 65.1012 30.4388 64.8214 30.6511L62.0689 29.009C62.7625 28.283 63.5515 27.3894 64.4354 26.3281C65.4314 25.133 65.9348 23.6251 65.9461 21.8043C65.9572 20.7209 65.711 19.816 65.2076 19.0898C64.6368 18.2409 63.8312 17.8277 62.7906 17.85C61.8283 17.8724 60.7989 18.2354 59.7023 18.9392C58.7176 19.5647 57.9007 20.313 57.2517 21.1843C56.5468 22.1226 56.1943 23.0275 56.1943 23.8987V30.5507L53.0556 28.8749V14.2141H51.2093V12.2035H53.0556C53.0556 8.91943 52.1995 6.11573 50.4876 3.79233C49.4581 2.39605 48.5071 1.41306 47.6341 0.84338L51.0247 0.80987C52.9045 1.83752 54.3984 4.05482 55.5061 7.46173C56.0321 9.08141 56.2951 10.662 56.2951 12.2035H69.8401V14.2141ZM75.3454 10.4442C75.3006 10.4889 75.1719 10.5112 74.9594 10.5112C74.7803 10.5112 74.6235 10.4889 74.4892 10.4442L73.3984 8.21573C72.9508 7.51199 72.3408 7.03726 71.5688 6.79152C70.8079 6.5346 70.338 6.25535 70.1589 5.95375C69.9912 5.43992 69.6666 4.65241 69.1855 3.59126V3.20588H69.8401C70.7016 3.47397 71.4009 3.7253 71.938 3.95986C72.8221 4.35082 73.415 4.80322 73.7172 5.31705C73.8852 5.59631 74.1425 6.3112 74.4892 7.46173C74.8138 8.54524 75.0879 9.29924 75.3117 9.72369C75.3341 9.92475 75.3454 10.1649 75.3454 10.4442ZM76.3356 14.2141H69.5044V12.2035H76.3356V14.2141ZM74.4223 30.7683L71.6025 29.2102V16.275H74.4223V30.7683Z" fill="#BD0014"/>
<path d="M99.3972 27.1133L97.5352 31.4255H83.645V29.9386L78.8412 31.7973V3.3217H98.3172L99.2855 2.94995V10.6079H94.4816V7.63393H83.645V27.1133H99.3972ZM125.739 3.3217L123.877 7.63393H116.69V29.9386L111.886 31.7973V7.63393H103.544V3.3217H125.739ZM148.403 15.961V20.2732H134.885V29.9386L130.081 31.7973V3.3217H149.893L148.031 7.63393H134.885V15.961H148.403Z" fill="#FFE66D"/>
</svg>
