<?xml version="1.0" encoding="utf-8"?>
<!-- Generator: Adobe Illustrator 27.8.0, SVG Export Plug-In . SVG Version: 6.00 Build 0)  -->
<svg version="1.1" xmlns="http://www.w3.org/2000/svg" xmlns:xlink="http://www.w3.org/1999/xlink" x="0px" y="0px"
	 viewBox="0 0 1401 571.2" style="enable-background:new 0 0 1401 571.2;" xml:space="preserve">
<style type="text/css">
	.st0{display:none;}
	.st1{display:inline;fill:#010202;}
	.st2{fill:#E20E18;}
	.st3{fill:#393737;}
	.st4{fill:#FFFFFF;}
</style>
<g id="Calque_3" class="st0">
	<polygon class="st1" points="1326.1,441.2 92.1,441.2 89.1,96.6 1323.1,96.6 	"/>
</g>
<g id="Calque_5">
	<g>
		<path class="st2" d="M219.9,319.4c0,0-0.2,18.5,14.3,21.1s24.4-10.5,24.4-10.5l-38.7-12.2V319.4z"/>
		<path class="st3" d="M216.8,390.4h-11.6v-2.6L168,361.4c-1.5-1.1-2.4-2.8-2.4-4.7v-49.1h11.6v46.1l37.3,26.5
			c1.5,1.1,2.4,2.8,2.4,4.7V390.4z"/>
		<g>
			<path class="st3" d="M284.5,423.1h-57.1c-12.2,0-22.2-9.9-22.2-22v-16.2h11.6v16.2c0,5.8,4.8,10.4,10.6,10.4h57.1V423.1z"/>
		</g>
		<path class="st3" d="M240.1,423.1c-3.2,0-5.8-2.6-5.8-5.8v-15.4c0-3.2,2.6-5.8,5.8-5.8s5.8,2.6,5.8,5.8v15.4
			C245.9,420.5,243.3,423.1,240.1,423.1z"/>
		<path class="st3" d="M272.5,423.1c-3.2,0-5.8-2.6-5.8-5.8v-21.1c0-3.2,2.6-5.8,5.8-5.8s5.8,2.6,5.8,5.8v21.1
			C278.3,420.5,275.7,423.1,272.5,423.1z"/>
		<path class="st3" d="M171.3,311.4c-7.5,0-13.7-6.1-13.7-13.7c0-7.5,6.1-13.7,13.7-13.7c7.5,0,13.7,6.1,13.7,13.7
			C185,305.3,178.9,311.4,171.3,311.4z M171.3,291.8c-3.3,0-6,2.7-6,6c0,3.3,2.7,6,6,6s6-2.7,6-6
			C177.3,294.4,174.6,291.8,171.3,291.8z"/>
		<circle class="st2" cx="186.3" cy="254.3" r="10.9"/>
		<circle class="st2" cx="226.5" cy="219.3" r="10.9"/>
		<circle class="st2" cx="204.7" cy="186.2" r="10.9"/>
		<circle class="st2" cx="258.3" cy="197.1" r="10.9"/>
		<circle class="st2" cx="259.2" cy="163.1" r="10.9"/>
		<circle class="st2" cx="312.1" cy="175.3" r="10.9"/>
		<rect x="160.5" y="215.4" class="st2" width="66" height="7.7"/>
		<path class="st2" d="M231.3,190h-26.7v-7.7h22.8v-9.7c0-1.6,1-3.1,2.6-3.6l27.9-9.5l2.5,7.3l-25.3,8.6v10.8
			C235.2,188.3,233.5,190,231.3,190z"/>
		
			<rect x="264.5" y="194.9" transform="matrix(0.9115 -0.4112 0.4112 0.9115 -66.4205 129.7323)" class="st2" width="7.7" height="48.6"/>
		<path class="st2" d="M247.1,263.6l-39.8-13.4l-19.6,7.7l-2.8-7.2l20.9-8.2c0.8-0.3,1.8-0.4,2.6-0.1l41.1,13.9L247.1,263.6z"/>
		<path class="st2" d="M315.9,210.2h-7.7v-28.9l-18.5,8.4c-1.2,0.5-2.6,0.4-3.7-0.3c-1.1-0.7-1.8-1.9-1.8-3.2v-47.3h7.7v41.3
			l18.5-8.4c1.2-0.5,2.6-0.4,3.7,0.3c1.1,0.7,1.8,1.9,1.8,3.2V210.2z"/>
		<path class="st3" d="M256.6,142.8c-7.5,0-13.7-6.1-13.7-13.7c0-7.5,6.1-13.7,13.7-13.7c7.5,0,13.7,6.1,13.7,13.7
			C270.2,136.6,264.1,142.8,256.6,142.8z M256.6,123.1c-3.3,0-6,2.7-6,6s2.7,6,6,6c3.3,0,6-2.7,6-6S259.9,123.1,256.6,123.1z"/>
		<path class="st3" d="M288.1,142.8c-7.5,0-13.7-6.1-13.7-13.7c0-7.5,6.1-13.7,13.7-13.7c7.5,0,13.7,6.1,13.7,13.7
			C301.8,136.6,295.6,142.8,288.1,142.8z M288.1,123.1c-3.3,0-6,2.7-6,6s2.7,6,6,6c3.3,0,6-2.7,6-6S291.4,123.1,288.1,123.1z"/>
		<path class="st3" d="M161.4,291c-17.6-49.2-6.4-85.4,6-107.1c19.5-33.9,53.4-53.8,78.5-58.5l2.1,11.4c-21.7,4.1-53,22.4-70.6,52.9
			c-16.1,28.1-17.9,61.8-5.2,97.5L161.4,291z"/>
		<path class="st3" d="M304.6,423.1c-3.2,0-5.8-2.6-5.8-5.8v-15.4c0-3.2,2.6-5.8,5.8-5.8s5.8,2.6,5.8,5.8v15.4
			C310.4,420.5,307.8,423.1,304.6,423.1z"/>
		<path class="st3" d="M272.2,423.1c-3.2,0-5.8-2.6-5.8-5.8v-21.1c0-3.2,2.6-5.8,5.8-5.8s5.8,2.6,5.8,5.8v21.1
			C277.9,420.5,275.3,423.1,272.2,423.1z"/>
		<path class="st3" d="M373.3,311.4c-7.5,0-13.7-6.1-13.7-13.7c0-7.5,6.1-13.7,13.7-13.7c7.5,0,13.7,6.1,13.7,13.7
			C387,305.3,380.9,311.4,373.3,311.4z M373.3,291.8c-3.3,0-6,2.7-6,6c0,3.3,2.7,6,6,6c3.3,0,6-2.7,6-6
			C379.3,294.4,376.6,291.8,373.3,291.8z"/>
		<path class="st3" d="M383.3,291l-10.9-3.9c12.8-35.6,11-69.4-5.2-97.5c-17.5-30.6-48.9-48.8-70.6-52.9l2.1-11.4
			c25,4.7,59,24.6,78.5,58.5C389.7,205.6,400.9,241.8,383.3,291z"/>
		<path class="st3" d="M181.5,298l-3.7-11c1.5-0.5,153-52.6,153.8-137.5l11.6,0.1C342.3,242.8,188.1,295.8,181.5,298z"/>
		<g>
			<path class="st3" d="M274.1,334.3l-3.8-10c105.9-37,110.4-89.9,110.5-90.4l11.5,0.7C392.1,237.1,387.1,294.8,274.1,334.3z"/>
		</g>
		<path class="st3" d="M204,305.6c0,0,40.4,16.5,66.2,18.7l-1.2,10.2C269,334.5,228.1,332.8,204,305.6z"/>
		<g>
			<path class="st3" d="M267.4,329.2c-3.2,12.1-14.2,21.1-27.3,21.1c-15.5,0-28.2-12.6-28.2-28.2c0-3.5,0.7-6.9,1.9-10l10.6,4.7
				c-0.6,1.7-0.9,3.5-0.9,5.3c0,9.2,7.5,16.7,16.7,16.7c7.3,0,13.6-4.8,15.8-11.4L267.4,329.2z"/>
		</g>
		<path class="st3" d="M338.8,295.3c4.4-3.6,8-13.4,8-7.7v33.8c0,5.7-4,12.8-8.9,15.7l-26.1,15.6c-4.9,2.9-12.3,2.1-16.4-1.9
			l-23.3-24.5c-4.1-3.9,4.4,0.6,9.7-1.4l28.2-14.5c5.3-2,12.4-5.8,16.9-9.4L338.8,295.3z"/>
		<g>
			<path class="st3" d="M274.2,375.4l-2.1-2.3l-2.1,2.3c0.5-0.5,1.3-0.8,2.1-0.8S273.7,374.9,274.2,375.4z"/>
			<path class="st3" d="M284.3,372.3l-8.5-9.7c-1.8-2.1-5.4-2.1-7.3,0l-8.5,9.7c-1.7,2-1.6,5.1,0.5,6.8c2,1.7,5.1,1.6,6.8-0.5
				l2.3-2.6c0.2-0.2,0.4-0.5,0.6-0.7l2.1-2.3l2.1,2.3c0.2,0.2,0.4,0.4,0.6,0.7l2.3,2.6c1,1.1,2.3,1.6,3.6,1.6c1.1,0,2.3-0.4,3.2-1.2
				C285.8,377.3,286,374.3,284.3,372.3z"/>
			<path class="st3" d="M274.2,375.4l0.6,0.7C274.6,375.8,274.4,375.6,274.2,375.4z"/>
			<path class="st3" d="M269.5,376.1l0.6-0.7C269.9,375.6,269.7,375.8,269.5,376.1z"/>
		</g>
		<path class="st3" d="M257.2,322.3c0,0,12.8,2.5,23.7-1.9c10.8-4.4,4.6,10.6,4.6,10.6s-8.1,5.6-21.9,2.8
			C249.8,331,257.2,322.3,257.2,322.3z"/>
		<path class="st3" d="M339.4,390.4h-11.6v-5.6c0-1.9,0.9-3.6,2.4-4.7l37.3-26.5v-46.1h11.6v49.1c0,1.9-0.9,3.6-2.4,4.7l-37.3,26.5
			V390.4z"/>
		<g>
			<path class="st3" d="M317.2,423.1h-57.1v-11.6h57.1c5.8,0,10.6-4.7,10.6-10.4v-16.2h11.6v16.2
				C339.4,413.2,329.5,423.1,317.2,423.1z"/>
		</g>
	</g>
</g>
<g id="Calque_4">
	<g>
		<path class="st2" d="M219.6,319.2c0,0-0.2,18.6,14.3,21.2c14.5,2.6,24.5-10.6,24.5-10.6l-38.9-12.3
			C219.6,317.5,219.6,319.2,219.6,319.2z"/>
		<path class="st4" d="M216.5,390.5h-11.6v-2.6l-37.5-26.6c-1.5-1.1-2.4-2.8-2.4-4.7v-49.3h11.6v46.3l37.5,26.6
			c1.5,1.1,2.4,2.8,2.4,4.7V390.5z"/>
		<path class="st4" d="M284.5,423.3h-57.3c-12.3,0-22.3-9.9-22.3-22.1v-16.3h11.6v16.3c0,5.8,4.8,10.5,10.7,10.5h57.3V423.3
			L284.5,423.3z"/>
		<path class="st4" d="M239.9,423.3c-3.2,0-5.8-2.6-5.8-5.8v-15.5c0-3.2,2.6-5.8,5.8-5.8c3.2,0,5.8,2.6,5.8,5.8v15.5
			C245.7,420.8,243.1,423.3,239.9,423.3z"/>
		<path class="st4" d="M272.5,423.3c-3.2,0-5.8-2.6-5.8-5.8v-21.2c0-3.2,2.6-5.8,5.8-5.8s5.8,2.6,5.8,5.8v21.2
			C278.3,420.8,275.7,423.3,272.5,423.3z"/>
		<path class="st4" d="M170.8,311.1c-7.6,0-13.7-6.2-13.7-13.7s6.2-13.7,13.7-13.7c7.6,0,13.7,6.2,13.7,13.7
			S178.3,311.1,170.8,311.1z M170.8,291.4c-3.3,0-6,2.7-6,6s2.7,6,6,6c3.3,0,6-2.7,6-6S174.1,291.4,170.8,291.4z"/>
		<circle class="st2" cx="185.9" cy="253.7" r="11"/>
		<circle class="st2" cx="226.2" cy="218.5" r="11"/>
		<circle class="st2" cx="204.3" cy="185.3" r="11"/>
		<circle class="st2" cx="258.2" cy="196.2" r="11"/>
		<circle class="st2" cx="259.1" cy="162.1" r="11"/>
		<circle class="st2" cx="312.2" cy="174.3" r="11"/>
		<rect x="159.9" y="214.7" class="st2" width="66.4" height="7.7"/>
		<path class="st2" d="M231.1,189.2h-26.8v-7.7h22.9v-9.7c0-1.7,1-3.1,2.6-3.7l28-9.5l2.5,7.3l-25.4,8.7v10.8
			C235,187.4,233.2,189.2,231.1,189.2z"/>
		
			<rect x="264.4" y="194.1" transform="matrix(0.9115 -0.4112 0.4112 0.9115 -66.1268 129.6253)" class="st2" width="7.7" height="48.8"/>
		<path class="st2" d="M246.9,263.1l-40-13.5l-19.7,7.7l-2.8-7.2l21-8.3c0.8-0.3,1.8-0.4,2.7-0.1l41.3,14
			C249.4,255.8,246.9,263.1,246.9,263.1z"/>
		<path class="st2" d="M316.1,209.4h-7.7v-29.1l-18.6,8.5c-1.2,0.5-2.6,0.5-3.7-0.3c-1.1-0.7-1.8-1.9-1.8-3.3v-47.5h7.7v41.5
			l18.6-8.5c1.2-0.5,2.6-0.5,3.7,0.3c1.1,0.7,1.8,1.9,1.8,3.3V209.4L316.1,209.4z"/>
		<path class="st4" d="M256.4,141.6c-7.6,0-13.7-6.2-13.7-13.7s6.2-13.7,13.7-13.7c7.6,0,13.7,6.2,13.7,13.7S264,141.6,256.4,141.6z
			 M256.4,121.9c-3.3,0-6,2.7-6,6s2.7,6,6,6c3.3,0,6-2.7,6-6S259.7,121.9,256.4,121.9z"/>
		<path class="st4" d="M288.1,141.6c-7.6,0-13.7-6.2-13.7-13.7s6.2-13.7,13.7-13.7s13.7,6.2,13.7,13.7S295.7,141.6,288.1,141.6z
			 M288.1,121.9c-3.3,0-6,2.7-6,6s2.7,6,6,6s6-2.7,6-6S291.4,121.9,288.1,121.9z"/>
		<path class="st4" d="M160.8,290.6c-17.7-49.4-6.5-85.8,6.1-107.7c19.6-34.1,53.7-54.1,78.9-58.8l2.1,11.4
			c-21.8,4.1-53.3,22.5-70.9,53.2c-16.2,28.3-18,62.2-5.2,98L160.8,290.6L160.8,290.6z"/>
		<path class="st4" d="M304.7,423.3c-3.2,0-5.8-2.6-5.8-5.8v-15.5c0-3.2,2.6-5.8,5.8-5.8c3.2,0,5.8,2.6,5.8,5.8v15.5
			C310.5,420.8,307.9,423.3,304.7,423.3z"/>
		<path class="st4" d="M272.1,423.3c-3.2,0-5.8-2.6-5.8-5.8v-21.2c0-3.2,2.6-5.8,5.8-5.8c3.2,0,5.8,2.6,5.8,5.8v21.2
			C277.9,420.8,275.3,423.3,272.1,423.3z"/>
		<path class="st4" d="M373.8,311.1c-7.6,0-13.7-6.2-13.7-13.7s6.2-13.7,13.7-13.7c7.6,0,13.7,6.2,13.7,13.7
			S381.4,311.1,373.8,311.1z M373.8,291.4c-3.3,0-6,2.7-6,6s2.7,6,6,6c3.3,0,6-2.7,6-6S377.1,291.4,373.8,291.4z"/>
		<path class="st4" d="M383.8,290.6l-10.9-3.9c12.8-35.8,11-69.7-5.2-98c-17.6-30.7-49.1-49.1-70.9-53.2l2.1-11.4
			c25.2,4.7,59.3,24.7,78.9,58.8C390.3,204.8,401.5,241.2,383.8,290.6L383.8,290.6z"/>
		<path class="st4" d="M181,297.6l-3.7-11c1.5-0.5,153.8-52.8,154.6-138.2l11.6,0.1C342.6,242.1,187.6,295.4,181,297.6L181,297.6z"
			/>
		<path class="st4" d="M274,334.2l-3.8-10.1c106.4-37.2,111-90.3,111-90.8l11.6,0.7C392.6,236.5,387.6,294.4,274,334.2z"/>
		<path class="st4" d="M203.6,305.3c0,0,40.6,16.6,66.6,18.8l-1.3,10.3C268.9,334.4,227.9,332.6,203.6,305.3z"/>
		<path class="st4" d="M267.3,329c-3.2,12.2-14.3,21.2-27.4,21.2c-15.6,0-28.3-12.7-28.3-28.3c0-3.6,0.7-6.9,1.9-10.1l10.6,4.7
			c-0.6,1.7-0.9,3.5-0.9,5.4c0,9.2,7.5,16.7,16.7,16.7c7.4,0,13.6-4.8,15.9-11.4C255.8,327.2,267.3,329,267.3,329z"/>
		<path class="st4" d="M339.1,294.9c4.4-3.6,8.1-13.5,8.1-7.7v33.9c0,5.7-4,12.8-8.9,15.8L312,352.5c-4.9,2.9-12.3,2.1-16.5-1.9
			L272.1,326c-4.1-4,4.4,0.6,9.7-1.4l28.3-14.6c5.4-2,12.5-5.9,16.9-9.5C327.1,300.5,339.1,294.9,339.1,294.9z"/>
		<g>
			<path class="st4" d="M274.2,375.5l-2.1-2.3l-2.1,2.3c0.5-0.5,1.3-0.8,2.1-0.8C272.9,374.7,273.6,375,274.2,375.5z"/>
			<path class="st4" d="M284.3,372.3l-8.5-9.7c-1.8-2.1-5.4-2.1-7.3,0l-8.5,9.7c-1.8,2-1.6,5.1,0.5,6.8c2,1.8,5.1,1.6,6.8-0.5
				l2.3-2.6c0.2-0.3,0.4-0.5,0.6-0.7l2.1-2.3l2.1,2.3c0.2,0.2,0.4,0.4,0.6,0.7l2.3,2.6c1,1.1,2.3,1.6,3.6,1.6c1.1,0,2.3-0.4,3.2-1.2
				C285.8,377.4,286,374.3,284.3,372.3z"/>
			<path class="st4" d="M274.2,375.5l0.6,0.7C274.6,375.9,274.4,375.7,274.2,375.5z"/>
			<path class="st4" d="M269.5,376.1l0.6-0.7C269.8,375.7,269.6,375.9,269.5,376.1z"/>
		</g>
		<path class="st4" d="M257,322.1c0,0,12.9,2.5,23.8-1.9c10.9-4.4,4.7,10.7,4.7,10.7s-8.1,5.6-22,2.8
			C249.6,330.9,257,322.1,257,322.1z"/>
		<path class="st4" d="M339.7,390.5h-11.6v-5.6c0-1.9,0.9-3.6,2.4-4.7l37.5-26.6v-46.3h11.6v49.3c0,1.9-0.9,3.6-2.4,4.7l-37.5,26.6
			V390.5z"/>
		<path class="st4" d="M317.4,423.3h-57.3v-11.6h57.3c5.9,0,10.7-4.7,10.7-10.5v-16.3h11.6v16.3
			C339.7,413.4,329.7,423.3,317.4,423.3z"/>
	</g>
	<rect x="1150.4" y="309.6" class="st4" width="128.8" height="37.1"/>
	<rect x="1150.4" y="309.6" class="st4" width="128.8" height="33.7"/>
	<g>
		<path class="st4" d="M439,225c0-4.3,2.2-6.5,6.6-6.5h78.8c6.4,0,12.1,0.6,17.2,1.6c5.1,1.1,9.4,2.6,13,4.6s6.3,4.4,8.2,7.2
			c1.9,2.8,2.9,5.9,2.9,9.4v17.7c0,3.4-1,6.6-2.9,9.4c-1.9,2.8-4.6,5.2-8.2,7.2s-7.9,3.5-13,4.6c-5.1,1.1-10.8,1.6-17.2,1.6h-16.4
			c-3.1,0-5.7,0-8.1-0.1c-2.3,0-4.4-0.1-6.3-0.2c-1.9-0.1-3.7-0.2-5.5-0.3v0.3c1.5,0.6,3.1,1.1,4.8,1.7c1.7,0.6,3.8,1.4,6.4,2.3
			c2.5,1,5.6,2.1,9.2,3.5c3.6,1.4,8.1,3.2,13.4,5.3l33.8,13.6c3,1.2,4.5,3.3,4.5,6.3c0,2.5-0.8,4.2-2.5,5.2c-1.6,1-4,1.4-7.1,1.4
			c-0.7,0-1.5,0-2.5-0.1c-1,0-2-0.1-3-0.3c-1-0.2-2-0.3-3-0.6s-1.9-0.6-2.6-1.1l-82.1-35.5v30.9c0,2.7-0.8,4.5-2.4,5.3
			c-1.6,0.8-3.9,1.3-7,1.3c-3.1,0-5.3-0.4-6.9-1.3c-1.6-0.8-2.4-2.6-2.4-5.3L439,225L439,225L439,225z M457.7,233.7v33.1h65.1
			c4.8,0,8.7-0.2,11.8-0.7c3.1-0.5,5.6-1.1,7.5-1.9c1.9-0.8,3.2-1.7,3.9-2.8c0.8-1.1,1.1-2.3,1.1-3.6v-15.1c0-1.2-0.4-2.4-1.1-3.5
			c-0.8-1.1-2.1-2.1-3.9-2.9c-1.9-0.8-4.4-1.4-7.5-1.9c-3.1-0.5-7.1-0.7-11.8-0.7L457.7,233.7L457.7,233.7z"/>
		<path class="st4" d="M574.3,265.4c0-16.3,13.2-24.4,39.7-24.4h30.6c26.5,0,39.7,8.1,39.7,24.4v30.4c0,16.3-13.2,24.4-39.7,24.4
			H614c-26.5,0-39.7-8.1-39.7-24.4V265.4z M666.4,265.4c0-2.9-1.8-5.3-5.3-7.3c-3.6-2-9.3-2.9-17.1-2.9h-29.5
			c-7.8,0-13.5,1-17.1,2.9c-3.6,2-5.3,4.4-5.3,7.3v30.4c0,2.8,1.8,5.2,5.3,7.2c3.6,2,9.3,3,17.1,3H644c7.8,0,13.5-1,17.1-3
			c3.6-2,5.3-4.4,5.3-7.2V265.4z"/>
		<path class="st4" d="M694.9,265.4c0-16.3,13.2-24.4,39.7-24.4h30.6c26.5,0,39.7,8.1,39.7,24.4v30.4c0,16.3-13.2,24.4-39.7,24.4
			h-30.6c-26.5,0-39.7-8.1-39.7-24.4V265.4z M787.1,265.4c0-2.9-1.8-5.3-5.3-7.3c-3.6-2-9.3-2.9-17.1-2.9h-29.5
			c-7.8,0-13.5,1-17.1,2.9c-3.6,1.9-5.3,4.4-5.3,7.3v30.4c0,2.8,1.8,5.2,5.3,7.2c3.6,2,9.3,3,17.1,3h29.5c7.8,0,13.5-1,17.1-3
			c3.6-2,5.3-4.4,5.3-7.2V265.4z"/>
		<path class="st4" d="M822.6,241v-16.4c0-2.7,0.7-4.5,2.2-5.3c1.5-0.8,3.7-1.3,6.7-1.3c3,0,5.2,0.4,6.7,1.3
			c1.5,0.8,2.3,2.6,2.3,5.3V241H870c2.1,0,3.5,0.6,4.1,1.8c0.6,1.2,0.9,3,0.9,5.3c0,2.3-0.3,4.1-0.9,5.3s-2,1.7-4.1,1.7h-29.6v59.1
			c0,2.7-0.8,4.5-2.3,5.3c-1.5,0.8-3.7,1.3-6.7,1.3c-3,0-5.2-0.4-6.7-1.3c-1.4-0.8-2.2-2.6-2.2-5.3v-59.1h-8c-2.1,0-3.5-0.6-4.1-1.7
			c-0.6-1.2-0.9-2.9-0.9-5.3c0-2.3,0.3-4.1,0.9-5.3c0.6-1.2,2-1.8,4.1-1.8H822.6z"/>
		<path class="st4" d="M1034.3,223.7c1.5-1.8,3.2-3.1,5-3.8c1.8-0.8,3.8-1.1,6.1-1.1c6.9,0,10.4,3.2,10.4,9.5v85.8
			c0,2.7-0.8,4.5-2.4,5.3c-1.6,0.8-3.9,1.3-7,1.3c-3.1,0-5.4-0.4-7-1.3c-1.6-0.8-2.4-2.6-2.4-5.3v-66.5l-56,67.8
			c-1.6,1.9-3.2,3.2-4.9,4.1c-1.7,0.8-3.7,1.3-6.2,1.3c-2.7,0-5-0.4-6.8-1.3c-1.8-0.8-3.5-2.2-5-4.1L902,247.6v66.5
			c0,2.7-0.8,4.5-2.4,5.3c-1.6,0.8-3.9,1.3-7,1.3c-3.1,0-5.3-0.4-6.9-1.3c-1.6-0.8-2.4-2.6-2.4-5.3v-85.8c0-6.4,3.4-9.5,10.3-9.5
			c4.6,0,8.3,1.6,11.1,4.9l64.5,77.9L1034.3,223.7L1034.3,223.7z"/>
		<path class="st4" d="M1085.5,288.6v7.2c0,2.8,1.8,5.2,5.3,7.2c3.6,2,9.3,3,17.1,3h16.1c2.1,0,3.5,0.6,4.2,1.7
			c0.6,1.2,0.9,2.9,0.9,5.3c0,2.3-0.3,4.1-0.9,5.3c-0.6,1.2-2,1.8-4.2,1.8h-16.7c-26.5,0-39.7-8.1-39.7-24.4v-30.4
			c0-16.3,13.2-24.4,39.7-24.4h32.4c14,0,24.2,2,30.4,6c6.2,4,9.3,10.1,9.3,18.4v16.1c0,2.7-0.5,4.6-1.5,5.6c-1,1-3.3,1.5-6.9,1.5
			L1085.5,288.6L1085.5,288.6z M1085.5,274.7h76.2v-9.4c0-3.3-1.7-5.8-5.3-7.6c-3.5-1.8-9.2-2.7-17.2-2.7h-31.3
			c-7.8,0-13.5,1-17.1,2.9c-3.6,2-5.3,4.4-5.3,7.3L1085.5,274.7L1085.5,274.7L1085.5,274.7z"/>
	</g>
	<g>
		<path class="st2" d="M1226.5,316.4c-0.6-0.2-1.3-0.4-2.2-0.6c-0.9-0.2-2.1-0.2-3.5-0.2h-19.1v9.7h19.1c1.4,0,2.5-0.1,3.5-0.2
			c0.9-0.2,1.6-0.3,2.2-0.6c0.6-0.2,0.9-0.5,1.1-0.8c0.2-0.3,0.3-0.7,0.3-1.1v-4.4c0-0.4-0.1-0.7-0.3-1
			C1227.4,316.9,1227,316.7,1226.5,316.4z"/>
		<path class="st2" d="M1184.3,316.4c-0.6-0.2-1.3-0.4-2.2-0.6c-0.9-0.2-2.1-0.2-3.5-0.2h-19.3V326h19.3c1.4,0,2.5-0.1,3.5-0.2
			c0.9-0.2,1.6-0.3,2.2-0.6c0.6-0.2,0.9-0.5,1.1-0.8s0.3-0.7,0.3-1.1v-5.1c0-0.4-0.1-0.7-0.3-1
			C1185.2,316.9,1184.8,316.7,1184.3,316.4L1184.3,316.4z"/>
		<path class="st2" d="M1267.6,316.6c-1.1-0.6-2.9-0.9-5.3-0.9h-11.6c-2.4,0-4.2,0.3-5.3,0.9c-1.1,0.6-1.6,1.4-1.6,2.3v14.5
			c0,0.9,0.6,1.6,1.6,2.3c1.1,0.6,2.9,1,5.3,1h11.6c2.4,0,4.2-0.3,5.3-1c1.1-0.6,1.6-1.4,1.6-2.3v-14.5
			C1269.2,317.9,1268.6,317.2,1267.6,316.6z"/>
		<path class="st2" d="M1275,301.6h-121.4c-5.5,0-9.9,4.5-9.9,9.9v29.2c0,5.5,4.5,9.9,9.9,9.9H1275c5.5,0,9.9-4.5,9.9-9.9v-29.2
			C1284.9,306.1,1280.4,301.6,1275,301.6z M1191.2,323.9c0,1-0.3,1.9-0.8,2.7c-0.6,0.8-1.4,1.5-2.4,2.1c-1.1,0.6-2.3,1-3.8,1.3
			c-1.5,0.3-3.2,0.5-5,0.5h-19.7v8.8c0,0.8-0.2,1.3-0.7,1.6s-1.1,0.4-2.1,0.4s-1.5-0.1-2-0.4s-0.7-0.8-0.7-1.6v-26.1
			c0-1.3,0.6-1.9,1.9-1.9h23.3c1.9,0,3.5,0.2,5,0.5c1.5,0.3,2.8,0.8,3.8,1.3c1,0.6,1.8,1.3,2.4,2.1c0.6,0.8,0.8,1.7,0.8,2.7
			L1191.2,323.9L1191.2,323.9z M1233.4,323.1c0,1-0.3,1.9-0.8,2.7s-1.4,1.5-2.4,2.1c-1.1,0.6-2.3,1-3.8,1.3c-1.5,0.3-3.2,0.5-5,0.5
			h-4.8c-0.9,0-1.7,0-2.3,0c-0.7,0-1.3,0-1.8-0.1c-0.6,0-1.1,0-1.6-0.1v0.1c0.4,0.2,0.9,0.4,1.4,0.5c0.5,0.2,1.1,0.4,1.9,0.7
			c0.8,0.3,1.6,0.6,2.7,1c1.1,0.4,2.3,0.9,3.9,1.6l9.9,4c0.9,0.4,1.3,1,1.3,1.8c0,0.8-0.2,1.3-0.7,1.5c-0.5,0.3-1.2,0.4-2.1,0.4
			c-0.2,0-0.4,0-0.7,0s-0.6,0-0.9-0.1c-0.3,0-0.6-0.1-0.9-0.2c-0.3-0.1-0.6-0.2-0.8-0.3l-24-10.4v9c0,0.8-0.2,1.3-0.7,1.6
			s-1.1,0.4-2.1,0.4s-1.5-0.1-2-0.4s-0.7-0.8-0.7-1.6v-26.1c0-1.3,0.6-1.9,1.9-1.9h23.1c1.9,0,3.5,0.2,5,0.5
			c1.5,0.3,2.8,0.8,3.8,1.3c1,0.6,1.8,1.3,2.4,2.1c0.6,0.8,0.8,1.7,0.8,2.7L1233.4,323.1L1233.4,323.1L1233.4,323.1z M1274.7,333.4
			c0,5.1-4,7.6-12.1,7.6h-11.9c-8.1,0-12.1-2.5-12.1-7.6v-14.5c0-5.1,4-7.6,12.1-7.6h11.9c8.1,0,12.1,2.5,12.1,7.6V333.4z"/>
	</g>
</g>
</svg>
