<svg width="189" height="63" viewBox="0 0 189 63" fill="none" xmlns="http://www.w3.org/2000/svg">
<g id="Layer_1" clip-path="url(#clip0_1395_797)">
<g id="_1337_UP_">
<g id="Group">
<path id="Vector" d="M55.6501 35.9381L48.84 32.9779C48.7231 32.913 48.6668 32.8308 48.6668 32.7312V30.8054C48.6668 30.6755 48.7231 30.5933 48.84 30.5587L55.6501 27.5984V29.6931L51.1346 31.6406C51.0869 31.6753 51.061 31.7142 51.061 31.7661C51.061 31.8181 51.0869 31.8484 51.1346 31.8657L55.6501 33.8392V35.9338V35.9381Z" fill="#FDF8E0"/>
<path id="Vector_2" d="M57.252 20.1763H61.8931C61.9927 20.1763 62.0793 20.2152 62.1529 20.2888C62.2265 20.3624 62.2655 20.4489 62.2655 20.5485V38.6777H59.9233V22.7167C59.9233 22.5998 59.8843 22.5133 59.8107 22.444C59.7371 22.3791 59.6505 22.3445 59.5509 22.3445H57.2563V20.1719L57.252 20.1763Z" fill="#FDF8E0"/>
<path id="Vector_3" d="M71.2446 26.8368C72.1668 27.7586 72.8595 28.8103 73.3314 29.9961C73.799 31.1819 74.0328 32.4153 74.0328 33.6964C74.0328 34.7999 73.8769 35.6785 73.5652 36.3363C73.2535 36.9942 72.8465 37.4962 72.3443 37.8424C71.8421 38.1886 71.2663 38.4137 70.6169 38.5219C69.9675 38.6301 69.2964 38.682 68.6037 38.682H66.8027C66.6555 38.682 66.5386 38.6257 66.4563 38.5089C65.9974 37.8684 65.5601 37.1023 65.1488 36.2151C64.7375 35.3279 64.3912 34.4061 64.1141 33.454L66.3091 32.4413C66.5083 33.0169 66.7204 33.5882 66.9499 34.1551C67.1793 34.722 67.4174 35.2111 67.6642 35.6222C67.7465 35.7694 67.872 35.843 68.0322 35.843H68.3786C69.5951 35.843 70.4523 35.6872 70.9459 35.3755C71.4395 35.0639 71.6862 34.5057 71.6862 33.6964C71.6862 32.662 71.5001 31.6969 71.1321 30.8097C70.7641 29.9225 70.2229 29.1219 69.5172 28.4164C69.4003 28.3342 69.2964 28.3255 69.1968 28.3905C68.7682 28.6198 68.3093 28.8059 67.8157 28.9444C67.3222 29.0829 66.7853 29.1522 66.2095 29.1522V26.8844C67.3785 26.8844 68.318 26.5079 69.0366 25.7505C69.751 24.9931 70.1666 23.9501 70.2835 22.6172C70.3008 22.5349 70.2835 22.47 70.2359 22.4181C70.1883 22.3705 70.119 22.3445 70.0367 22.3445H67.1966C67.0971 22.3445 67.0105 22.3791 66.9369 22.444C66.8633 22.509 66.8243 22.5998 66.8243 22.7167V24.8373H64.4778V20.5441C64.4778 20.4446 64.5167 20.358 64.5903 20.2845C64.6639 20.2109 64.7505 20.1719 64.8501 20.1719H72.301C72.4006 20.1719 72.4872 20.2109 72.5608 20.2845C72.6344 20.358 72.6733 20.4446 72.6733 20.5441V21.8771C72.6733 22.6648 72.5478 23.4611 72.3053 24.2574C72.0586 25.0537 71.6949 25.7981 71.2187 26.4905C71.1364 26.6204 71.1451 26.7372 71.2446 26.8368Z" fill="#FDF8E0"/>
</g>
<g id="Group_2">
<path id="Vector_4" d="M82.3972 26.8368C83.3193 27.7586 84.012 28.8103 84.484 29.9961C84.9515 31.1819 85.1853 32.4153 85.1853 33.6964C85.1853 34.7999 85.0295 35.6785 84.7177 36.3363C84.406 36.9942 83.9991 37.4962 83.4969 37.8424C82.9946 38.1886 82.4188 38.4137 81.7694 38.5219C81.12 38.6301 80.449 38.682 79.7562 38.682H77.9552C77.808 38.682 77.6911 38.6257 77.6089 38.5089C77.1499 37.8684 76.7127 37.1023 76.3014 36.2151C75.8901 35.3279 75.5437 34.4061 75.2667 33.454L77.4617 32.4413C77.6608 33.0169 77.873 33.5882 78.1024 34.1551C78.3319 34.722 78.57 35.2111 78.8168 35.6222C78.899 35.7694 79.0246 35.843 79.1848 35.843H79.5311C80.7477 35.843 81.6049 35.6872 82.0985 35.3755C82.592 35.0639 82.8388 34.5057 82.8388 33.6964C82.8388 32.662 82.6526 31.6969 82.2846 30.8097C81.9166 29.9225 81.3754 29.1219 80.6698 28.4164C80.5529 28.3342 80.449 28.3255 80.3494 28.3905C79.9208 28.6198 79.4618 28.8059 78.9683 28.9444C78.4747 29.0829 77.9379 29.1522 77.3621 29.1522V26.8844C78.531 26.8844 79.4705 26.5079 80.1892 25.7505C80.9035 24.9931 81.3192 23.9501 81.4361 22.6172C81.4534 22.5349 81.4361 22.47 81.3884 22.4181C81.3408 22.3705 81.2715 22.3445 81.1893 22.3445H78.3492C78.2496 22.3445 78.163 22.3791 78.0894 22.444C78.0158 22.509 77.9769 22.5998 77.9769 22.7167V24.8373H75.6303V20.5441C75.6303 20.4446 75.6693 20.358 75.7429 20.2845C75.8165 20.2109 75.9031 20.1719 76.0027 20.1719H83.4536C83.5531 20.1719 83.6397 20.2109 83.7133 20.2845C83.7869 20.358 83.8259 20.4446 83.8259 20.5441V21.8771C83.8259 22.6648 83.7003 23.4611 83.4579 24.2574C83.2111 25.0537 82.8474 25.7981 82.3712 26.4905C82.2889 26.6204 82.2976 26.7372 82.3972 26.8368Z" fill="#FDF8E0"/>
</g>
<g id="Group_3">
<path id="Vector_5" d="M86.0772 22.3488V20.1763H94.1948C94.2944 20.1763 94.381 20.2152 94.4546 20.2888C94.5282 20.3624 94.5671 20.4489 94.5671 20.5485V21.929C94.5671 22.1108 94.5195 22.2926 94.4199 22.47C93.7792 23.5044 93.1904 24.6815 92.6535 25.9972C92.1167 27.3128 91.6578 28.6848 91.2725 30.1173C90.8871 31.5498 90.5798 32.9953 90.359 34.4581C90.1382 35.9209 90.0256 37.3274 90.0256 38.6777H87.705C87.705 37.362 87.8003 35.9988 87.9908 34.5836C88.1813 33.1684 88.4454 31.7618 88.7917 30.3639C89.1381 28.9661 89.558 27.5985 90.0516 26.2568C90.5451 24.9152 91.095 23.6558 91.7054 22.47C91.74 22.4354 91.7444 22.4094 91.7184 22.3835C91.6924 22.3575 91.6664 22.3445 91.6318 22.3445H86.0815L86.0772 22.3488Z" fill="#FDF8E0"/>
<path id="Vector_6" d="M110.802 35.843V20.1763H113.149V38.6777H106.265C105.196 37.8078 104.369 36.7951 103.784 35.6439C103.2 34.4927 102.893 33.2766 102.858 31.9912C102.823 30.9395 102.94 29.9009 103.204 28.8838C103.468 27.8625 103.763 26.8627 104.092 25.876C104.274 25.3004 104.447 24.7421 104.611 24.1968C104.776 23.6558 104.897 23.1452 104.971 22.6691C105.044 22.193 105.07 21.7429 105.044 21.3231C105.018 20.9033 104.91 20.5225 104.711 20.1763H107.205C107.335 20.6696 107.395 21.1803 107.378 21.704C107.361 22.232 107.304 22.7643 107.205 23.3096C107.105 23.8549 106.98 24.4002 106.824 24.9499C106.668 25.4995 106.499 26.0491 106.317 26.5901C106.053 27.4297 105.811 28.2563 105.59 29.0699C105.369 29.8836 105.239 30.6755 105.209 31.4502C105.174 32.2249 105.278 32.9779 105.516 33.718C105.754 34.4581 106.196 35.1635 106.837 35.8386H110.811L110.802 35.843Z" fill="#FDF8E0"/>
</g>
<g id="Group_4">
<path id="Vector_7" d="M123.635 20.1763C124.011 20.8687 124.314 21.5871 124.535 22.3358C124.756 23.0846 124.886 23.7857 124.916 24.4435C125.016 25.9582 124.76 27.3475 124.15 28.6112C123.951 29.005 123.695 29.4248 123.384 29.8706C123.072 30.3163 122.669 30.7405 122.176 31.1516C121.682 31.5628 121.089 31.9393 120.401 32.2855C119.708 32.6317 118.894 32.9174 117.959 33.1511V38.6777H115.612V20.1763H123.63H123.635ZM122.054 27.6028C122.267 27.157 122.418 26.6983 122.5 26.2222C122.583 25.7462 122.617 25.2831 122.6 24.8287C122.583 24.3786 122.531 23.9371 122.44 23.5087C122.349 23.0802 122.232 22.6951 122.08 22.3488H117.959V30.7361C119.95 30.1432 121.314 29.1002 122.054 27.6028Z" fill="#FDF8E0"/>
</g>
<g id="Group_5">
<path id="Vector_8" d="M131.06 31.87C131.107 31.8527 131.133 31.8224 131.133 31.7705C131.133 31.7185 131.107 31.6796 131.06 31.645L126.544 29.6974V27.6028L133.354 30.563C133.471 30.5976 133.527 30.6799 133.527 30.8097V32.7356C133.527 32.8351 133.471 32.9173 133.354 32.9823L126.544 35.9425V33.8478L131.06 31.8743V31.87Z" fill="#FDF8E0"/>
</g>
</g>
<path id="Path_128220" d="M33.41 12.252L34.8473 13.9961H187.558V44.9184H34.8473L33.41 46.6668H189V12.252H33.41Z" fill="#FDF8E0"/>
<path id="Path_128221" d="M2.88338 26.5771L0 29.4551L2.88338 32.3374L17.3609 46.8096L18.374 45.7926L2.03915 29.4594L13.6766 17.8262L12.6592 16.8092L2.88338 26.5771Z" fill="#2C91B5"/>
<path id="Path_128222" d="M53.5417 0L43.6274 9.9107H111.452L115.539 5.82957H140.047L145.879 0L53.5417 0Z" fill="#ECC469"/>
<path id="Path_128223" d="M117.089 8.16656L111.253 13.9961H188.996L183.164 8.16656H117.084H117.089Z" fill="#FDF8E0"/>
<path id="Path_128224" d="M29.033 48.9995L24.2923 53.7428L15.0317 63H50.1821L58.3517 54.8291H78.7778L84.6051 48.9995H29.033Z" fill="#ECC469"/>
<path id="Path_128225" d="M91.792 48.9995L82.4535 58.3346H59.1093L54.4422 63H82.4535L91.792 53.6649H161.824L166.491 48.9995H91.792Z" fill="#2C91B5"/>
<path id="Path_128226" d="M25.3097 9.91504L5.76245 29.4594L25.3097 48.9995L29.3923 44.9184L44.8613 29.4551L25.3097 9.91504ZM25.3097 46.6668L8.08734 29.4594L25.314 12.2521L42.5277 29.4594L25.314 46.6668H25.3097Z" fill="#FDF8E0"/>
<path id="Path_128227" d="M20.0278 30.1649C18.4952 29.9745 17.4085 28.5766 17.599 27.0445C17.651 26.6247 17.7982 26.2223 18.0276 25.8674C19.0797 26.3954 21.3137 27.5119 22.9761 28.3429L24.4352 27.6115L17.6986 24.2401L17.3652 24.5993C15.824 26.2612 15.9192 28.8536 17.5817 30.3943C18.2658 31.0261 19.1403 31.4113 20.0711 31.4805C20.0278 31.0434 20.0148 30.602 20.0278 30.1649Z" fill="#FDF8E0"/>
<path id="Path_128228" d="M33.2542 24.6037L32.9208 24.2444L22.1795 29.6239C21.7899 29.8187 21.3829 29.9745 20.963 30.087L20.8158 30.1216C20.7941 30.6756 20.8158 31.2339 20.8937 31.7878C20.9457 32.16 21.0193 32.5279 21.1102 32.8957C21.6903 35.2155 23.0324 37.2755 24.9114 38.7513L25.314 39.0672L25.7167 38.7513C26.9592 37.7775 27.9723 36.5441 28.6823 35.1376C29.2668 33.9864 29.6348 32.7356 29.7733 31.4503C29.8166 31.0088 29.8296 30.5674 29.8123 30.1259C29.7647 30.113 29.7127 30.1 29.6564 30.087C29.2365 29.9745 28.8295 29.823 28.4399 29.6239L27.6433 29.2258L26.1842 29.9572L27.8554 30.7924C28.0675 30.8963 28.2797 30.9915 28.4961 31.0781C28.336 32.9866 27.6 34.8 26.3834 36.2801C26.0544 36.6783 25.6994 37.0461 25.314 37.388C23.474 35.7781 22.3311 33.5146 22.1319 31.0781C22.3484 30.9915 22.5605 30.8963 22.7683 30.7924L32.5961 25.8717C33.436 27.1657 33.068 28.9012 31.7692 29.7408C31.4185 29.9701 31.0202 30.113 30.6046 30.1692C30.6176 30.6107 30.6046 31.0478 30.5656 31.4849C31.0072 31.4503 31.4401 31.3464 31.8471 31.1733C33.9339 30.2904 34.908 27.8841 34.0291 25.7981C33.843 25.3567 33.5832 24.9542 33.2542 24.6037Z" fill="#FDF8E0"/>
<path id="Path_128229" d="M27.7081 23.8506C28.1887 22.8812 29.1758 22.2709 30.2538 22.2709V20.9639C28.9637 20.9639 27.7471 21.5655 26.9635 22.5869C26.9115 22.6561 26.8596 22.7253 26.812 22.7946C26.4699 22.4397 26.1063 22.1108 25.7166 21.8079L25.314 21.4919L24.8984 21.8208C24.5477 22.0978 24.2143 22.3964 23.8983 22.7167C23.868 22.747 23.842 22.773 23.816 22.8032C23.7684 22.7297 23.7164 22.6604 23.6645 22.5912C23.4134 22.2623 23.1103 21.9723 22.7726 21.73C22.0713 21.2323 21.2314 20.9639 20.3741 20.9639V22.2709C21.4565 22.2709 22.4436 22.8855 22.9242 23.8549C22.8159 24.0021 22.7077 24.1535 22.6081 24.305C22.357 24.6815 22.1276 25.0754 21.9241 25.4778L23.093 26.0621C23.5389 25.1662 24.1277 24.344 24.8334 23.6299C24.9893 23.4697 25.1538 23.3183 25.3183 23.1711C26.2405 23.9804 26.9981 24.9628 27.5436 26.0578L28.7126 25.4735C28.4268 24.9022 28.0935 24.3613 27.7125 23.8506" fill="#FDF8E0"/>
<g id="LIVE">
<g id="Group_6">
<path id="Vector_9" d="M153.832 36.2411C153.707 36.4272 153.529 36.5181 153.291 36.5181H149.009C148.936 36.5181 148.871 36.4921 148.814 36.4359C148.758 36.3796 148.732 36.3147 148.732 36.2411V22.5609H150.499V34.1551C150.499 34.2157 150.52 34.272 150.564 34.3153C150.607 34.3585 150.659 34.3802 150.724 34.3802H152.36C152.607 34.3802 152.802 34.2677 152.936 34.0469C153.109 33.7353 153.278 33.3848 153.438 32.9953C153.598 32.6058 153.75 32.2119 153.884 31.8138L155.486 32.5755C155.287 33.2593 155.04 33.9214 154.75 34.5663C154.46 35.2111 154.153 35.7694 153.828 36.2411H153.832Z" fill="#FDF8E0"/>
<path id="Vector_10" d="M156.607 22.5652H158.374V36.5224H156.607V22.5652Z" fill="#FDF8E0"/>
<path id="Vector_11" d="M164.162 36.6523C163.803 36.5181 163.435 36.319 163.054 36.068C162.673 35.8127 162.314 35.4621 161.963 35.0077C161.617 34.5533 161.3 33.9863 161.015 33.3069C160.729 32.6231 160.504 31.7835 160.335 30.7838C160.166 29.784 160.075 28.6112 160.054 27.2566C160.036 25.9063 160.114 24.3397 160.287 22.5652H162.093C161.933 24.5517 161.881 26.2439 161.946 27.6461C162.01 29.0483 162.145 30.2168 162.357 31.156C162.569 32.0951 162.833 32.8265 163.158 33.3502C163.482 33.8738 163.816 34.2633 164.162 34.5143C164.509 34.2677 164.846 33.8782 165.167 33.3502C165.491 32.8222 165.755 32.0908 165.968 31.156C166.18 30.2211 166.318 29.0483 166.388 27.6461C166.457 26.2439 166.405 24.5517 166.227 22.5652H168.033C168.219 24.3397 168.301 25.902 168.275 27.2566C168.249 28.6069 168.154 29.784 167.985 30.7838C167.816 31.7835 167.591 32.6231 167.305 33.3069C167.02 33.9907 166.704 34.5576 166.357 35.0077C166.011 35.4621 165.647 35.8127 165.266 36.068C164.885 36.3234 164.517 36.5181 164.158 36.6523H164.162Z" fill="#FDF8E0"/>
<path id="Vector_12" d="M169.505 29.1522C169.492 28.0616 169.639 26.9536 169.951 25.8327C170.262 24.7118 170.739 23.6212 171.384 22.5652H176.8V24.1838H172.574C172.362 24.582 172.176 25.0018 172.007 25.4476C171.838 25.8933 171.704 26.3607 171.609 26.8411H176.094V28.4597H171.384C171.371 28.5593 171.366 28.6631 171.366 28.767V29.0743C171.366 29.9788 171.501 30.8876 171.765 31.7921C172.029 32.6967 172.47 33.5579 173.076 34.3802H175.124V30.9915H176.8V36.5181H172.055C171.197 35.3539 170.561 34.1465 170.145 32.9001C169.73 31.6537 169.513 30.4029 169.505 29.1479V29.1522Z" fill="#FDF8E0"/>
</g>
</g>
<path id="Path_128230" d="M183.194 20.172C183.194 21.3924 182.207 22.3792 180.986 22.3792C179.765 22.3792 178.778 21.3924 178.778 20.172C178.778 18.9515 179.765 17.9648 180.986 17.9648C182.207 17.9648 183.194 18.9515 183.194 20.172Z" fill="#F03157"/>
<path id="Rectangle_6620" d="M141.273 13.1133H139.74V45.9138H141.273V13.1133Z" fill="#FDF8E0"/>
</g>
<defs>
<clipPath id="clip0_1395_797">
<rect width="189" height="63" fill="white"/>
</clipPath>
</defs>
</svg>
